<svg width="42" height="42" viewBox="0 0 42 42" fill="none" xmlns="http://www.w3.org/2000/svg">
<path fillRule="evenodd" clipRule="evenodd" d="M2.39413 39.6058C5.03926 36.9606 7.00001 33.8869 8.27877 30.6C8.72633 31.1897 9.21178 31.7462 9.73276 32.2671C10.2537 32.7881 10.8102 33.2759 11.3999 33.7211C8.11537 34.9999 5.03926 36.9606 2.39413 39.6058ZM8.57478 29.802C8.9063 28.8619 9.18337 27.9075 9.40596 26.9437C10.0288 28.1538 10.8386 29.255 11.793 30.2093C12.7473 31.1636 13.8461 31.9711 15.0562 32.5963C14.0924 32.8165 13.138 33.0936 12.2003 33.4251C11.4993 32.9278 10.8434 32.3713 10.2372 31.7651C9.63093 31.1589 9.07444 30.5006 8.57478 29.802ZM9.64514 25.7786C9.92931 24.2228 10.0761 22.6481 10.0785 21.0709C10.1164 27.029 14.9685 31.8835 20.9289 31.9214C19.3542 31.9238 17.7771 32.0706 16.2212 32.3548C14.7436 31.7296 13.4127 30.825 12.295 29.7049C11.1773 28.5872 10.2703 27.2563 9.64514 25.7786ZM31.9215 21.0662C31.9239 22.6457 32.0683 24.2252 32.3525 25.781C31.7273 27.2587 30.8227 28.5872 29.705 29.7049C28.5873 30.8226 27.2588 31.7296 25.7811 32.3548C24.2253 32.0682 22.6482 31.9238 21.071 31.9214C27.0314 31.8835 31.886 27.029 31.9215 21.0662ZM32.594 26.9437C32.8142 27.9099 33.0913 28.8619 33.4228 29.802C32.9255 30.5006 32.3714 31.1589 31.7652 31.7651C31.159 32.369 30.503 32.9231 29.8044 33.4227C28.8643 33.0912 27.91 32.8142 26.9438 32.5939C28.1539 31.9688 29.2551 31.1636 30.2094 30.2093C31.1637 29.255 31.9688 28.1538 32.594 26.9437ZM33.7188 30.6C34.9976 33.8845 36.9607 36.9606 39.6058 39.6058C36.9607 36.9606 33.887 34.9975 30.6025 33.7188C31.1898 33.2736 31.7463 32.7881 32.2672 32.2671C32.7882 31.7462 33.2737 31.1873 33.7188 30.6ZM21.0663 10.0784C22.6458 10.076 24.2229 9.93158 25.7811 9.64505C27.2564 10.2702 28.5873 11.1772 29.705 12.2949C30.8227 13.4126 31.7297 14.7411 32.3548 16.2188C32.0683 17.7746 31.9239 19.3541 31.9215 20.9336C31.886 14.9708 27.0291 10.1139 21.0663 10.0784ZM26.9415 9.40587C27.9076 9.18327 28.862 8.90858 29.8021 8.57705C30.5007 9.07434 31.159 9.63084 31.7652 10.2347C32.3714 10.8409 32.9255 11.4969 33.4228 12.1954C33.0913 13.1356 32.8166 14.0899 32.594 15.0561C31.9688 13.846 31.1637 12.7448 30.2094 11.7905C29.2551 10.8362 28.1539 10.0287 26.9415 9.40587ZM30.6001 8.28104C33.8846 7.00229 36.9607 5.03917 39.6058 2.39404C36.9607 5.03917 34.9976 8.11291 33.7188 11.3974C33.2737 10.8101 32.7882 10.2536 32.2672 9.73267C31.7463 9.21169 31.1874 8.72624 30.6001 8.28104ZM10.0785 20.9289C10.0761 19.3517 9.93167 17.777 9.64514 16.2212C10.2703 14.7435 11.1773 13.4126 12.295 12.2949C13.4127 11.1772 14.7436 10.2726 16.2189 9.64742C17.7771 9.93158 19.3542 10.076 20.9337 10.0784C14.9709 10.1139 10.1164 14.9684 10.0785 20.9289ZM9.40596 15.0584C9.18573 14.0923 8.90867 13.1403 8.57714 12.2002C9.07443 11.4992 9.63093 10.8409 10.2372 10.2347C10.841 9.63084 11.497 9.07671 12.1955 8.57942C13.1357 8.90858 14.09 9.18564 15.0562 9.40587C13.8461 10.031 12.7449 10.8362 11.793 11.7905C10.8363 12.7448 10.0311 13.8484 9.40596 15.0584ZM8.28113 11.4021C7.00238 8.11765 5.03926 5.03917 2.39413 2.39404C5.03926 5.03917 8.113 7.00229 11.3975 8.28341C10.8102 8.72861 10.2537 9.21169 9.73276 9.73267C9.21178 10.2536 8.72633 10.8125 8.28113 11.4021Z" fill="#C6003D"/>
<path fillRule="evenodd" clipRule="evenodd" d="M39.0186 12.3187C39.594 13.5453 40.0629 15.1272 40.0582 16.8654C40.0558 18.2388 39.7574 19.7094 38.9878 21.1823C38.2845 22.5321 38.0122 23.8796 38.0074 25.1346C38.0027 26.7449 38.4384 28.2107 38.9712 29.345L38.2537 29.6813C37.6783 28.4547 37.207 26.8728 37.2117 25.1346C37.2165 23.7612 37.5125 22.2906 38.2821 20.8177C38.9878 19.4679 39.2601 18.1204 39.2625 16.8654C39.2672 15.2551 38.8315 13.7893 38.2987 12.655L39.0186 12.3187ZM40.958 12.3187C41.5335 13.5453 42.0047 15.1272 42 16.8654C41.9976 18.2388 41.6992 19.7094 40.9296 21.1823C40.2239 22.5321 39.9516 23.8796 39.9492 25.1346C39.9445 26.7449 40.3802 28.2107 40.913 29.345L40.1955 29.6813C39.6201 28.4547 39.1488 26.8728 39.1536 25.1346C39.1583 23.7612 39.4543 22.2906 40.2239 20.8177C40.9296 19.4679 41.2019 18.1204 41.2043 16.8654C41.209 15.2551 40.7733 13.7893 40.2405 12.655L40.958 12.3187ZM29.6813 3.74631C28.4547 4.32175 26.8728 4.79299 25.1346 4.78825C23.7612 4.78352 22.2906 4.48751 20.8153 3.71789C19.4679 3.01221 18.1204 2.73988 16.8654 2.73751C15.2551 2.73278 13.7893 3.1685 12.655 3.70132L12.3187 2.98142C13.5453 2.40599 15.1272 1.93711 16.8654 1.94185C18.2388 1.94421 19.7094 2.24259 21.1823 3.01221C22.5321 3.71552 23.8796 3.98785 25.1346 3.99259C26.7449 3.99732 28.2107 3.5616 29.345 3.02878L29.6813 3.74631ZM29.6813 1.8045C28.4547 2.37994 26.8728 2.85118 25.1346 2.84645C23.7612 2.84408 22.2906 2.5457 20.8153 1.77608C19.4679 1.0704 18.1204 0.798071 16.8654 0.795703C15.2551 0.790967 13.7893 1.22669 12.655 1.7595L12.3187 1.04198C13.5453 0.466543 15.1272 -0.00470073 16.8654 3.53902e-05C18.2388 0.00477151 19.7094 0.300779 21.1823 1.0704C22.5321 1.77608 23.8796 2.04841 25.1346 2.05078C26.7449 2.05551 28.2107 1.61979 29.345 1.08698L29.6813 1.8045ZM1.80687 12.3187C2.38231 13.5453 2.85118 15.1272 2.84645 16.8654C2.84408 18.2388 2.5457 19.7094 1.77608 21.1823C1.07277 22.5321 0.800439 23.8796 0.795703 25.1346C0.790967 26.7449 1.22669 28.2107 1.7595 29.345L1.04198 29.6813C0.466543 28.4547 -0.00470073 26.8728 3.53902e-05 25.1346C0.00477151 23.7612 0.300779 22.2906 1.0704 20.8177C1.77608 19.4679 2.04841 18.1204 2.05078 16.8654C2.05551 15.2551 1.61979 13.7893 1.08698 12.655L1.80687 12.3187ZM3.74631 12.3187C4.32175 13.5453 4.79299 15.1272 4.78825 16.8654C4.78589 18.2388 4.48751 19.7094 3.71789 21.1823C3.01221 22.5321 2.73988 23.8796 2.73751 25.1346C2.73278 26.7449 3.1685 28.2107 3.70132 29.345L2.98379 29.6813C2.40835 28.4547 1.93711 26.8728 1.94185 25.1346C1.94421 23.7612 2.24259 22.2906 3.01221 20.8177C3.71789 19.4679 3.99022 18.1204 3.99259 16.8654C3.99732 15.2551 3.5616 13.7893 3.02878 12.655L3.74631 12.3187ZM29.6813 39.0186C28.4547 39.594 26.8728 40.0629 25.1346 40.0605C23.7612 40.0558 22.2906 39.7574 20.8153 38.9902C19.4679 38.2845 18.1204 38.0122 16.8654 38.0074C15.2551 38.005 13.7893 38.4384 12.655 38.9712L12.3187 38.2537C13.5453 37.6783 15.1272 37.2094 16.8654 37.2141C18.2388 37.2165 19.7094 37.5149 21.1823 38.2845C22.5321 38.9878 23.8796 39.2601 25.1346 39.2649C26.7449 39.2672 28.2107 38.8339 29.345 38.3011L29.6813 39.0186ZM29.6813 40.9604C28.4547 41.5358 26.8728 42.0047 25.1346 42C23.7612 41.9976 22.2906 41.6992 20.8153 40.9296C19.4679 40.2263 18.1204 39.954 16.8654 39.9492C15.2551 39.9445 13.7893 40.3802 12.655 40.913L12.3187 40.1955C13.5453 39.6201 15.1272 39.1488 16.8654 39.1536C18.2388 39.1583 19.7094 39.4543 21.1823 40.2239C22.5321 40.9296 23.8796 41.2019 25.1346 41.2043C26.7449 41.209 28.2107 40.7733 29.345 40.2405L29.6813 40.9604ZM21 21V23.728H21.0024C22.5037 23.728 23.728 22.5037 23.7304 21C23.728 19.4963 22.5037 18.272 21.0024 18.272H21V21ZM18.272 21C18.272 22.5037 19.4963 23.728 21 23.728V21V18.272C19.4963 18.272 18.272 19.4963 18.272 21Z" fill="#006D66"/>
</svg>
