<svg width="492" height="492" viewBox="0 0 492 492" fill="none" xmlns="http://www.w3.org/2000/svg">
<path d="M436.817 324.915H258.963C255.783 324.915 253.195 322.327 253.195 319.147V60.0851C253.195 56.9048 255.783 54.3169 258.963 54.3169H436.817C439.997 54.3169 442.585 56.9038 442.585 60.0851V319.146C442.586 322.327 439.998 324.915 436.817 324.915ZM258.963 54.5629C255.918 54.5629 253.441 57.0406 253.441 60.0851V319.146C253.441 322.191 255.919 324.668 258.963 324.668H436.817C439.863 324.668 442.339 322.19 442.339 319.146V60.0851C442.339 57.0406 439.862 54.5629 436.817 54.5629H258.963Z" fill="#E0E0E0"/>
<path d="M231.725 324.915H53.87C50.6897 324.915 48.1018 322.327 48.1018 319.147V60.0851C48.1018 56.9048 50.6887 54.3169 53.87 54.3169H231.725C234.905 54.3169 237.493 56.9038 237.493 60.0851V319.146C237.493 322.327 234.905 324.915 231.725 324.915ZM53.87 54.5629C50.8255 54.5629 48.3478 57.0406 48.3478 60.0851V319.146C48.3478 322.191 50.8255 324.668 53.87 324.668H231.725C234.771 324.668 237.247 322.19 237.247 319.146V60.0851C237.247 57.0406 234.77 54.5629 231.725 54.5629H53.87Z" fill="#E0E0E0"/>
<path d="M492 385.007H0V385.253H492V385.007Z" fill="#E0E0E0"/>
<path d="M66.6483 399.043H50.8452V399.289H66.6483V399.043Z" fill="#E0E0E0"/>
<path d="M220.3 396.376H167.626V396.622H220.3V396.376Z" fill="#E0E0E0"/>
<path d="M103.302 408.184H67.6323V408.43H103.302V408.184Z" fill="#E0E0E0"/>
<path d="M414.797 396.248H372.298V396.494H414.797V396.248Z" fill="#E0E0E0"/>
<path d="M429.794 396.248H423.565V396.494H429.794V396.248Z" fill="#E0E0E0"/>
<path d="M364.181 402.378H311.153V402.624H364.181V402.378Z" fill="#E0E0E0"/>
<path d="M136.564 219.721C135.48 214.49 133.407 209.627 130.572 205.307L135.733 199.073L124.699 188.039L118.465 193.199C114.145 190.365 109.282 188.292 104.052 187.207L103.295 179.172H87.6911L86.9334 187.207C81.7035 188.292 76.8395 190.365 72.5208 193.199L66.2871 188.039L55.2535 199.073L60.4146 205.308C57.5797 209.627 55.5074 214.49 54.4221 219.721L46.3867 220.478V236.082L54.4221 236.839C55.5074 242.069 57.5797 246.932 60.4146 251.252L55.2535 257.485L66.2881 268.52L72.5218 263.358C76.8405 266.194 81.7044 268.266 86.9344 269.351L87.6921 277.386H103.296L104.053 269.352C109.283 268.267 114.147 266.194 118.466 263.358L124.7 268.52L135.734 257.485L130.573 251.252C133.408 246.932 135.481 242.069 136.565 236.839L144.6 236.082V220.478L136.564 219.721ZM116.618 228.279C116.618 239.946 107.161 249.404 95.4932 249.404C83.8269 249.404 74.3687 239.946 74.3687 228.279C74.3687 216.613 83.8259 207.155 95.4932 207.155C107.161 207.155 116.618 216.612 116.618 228.279Z" fill="#CA0026"/>
<path d="M315.209 290.336C314.394 286.405 312.836 282.75 310.705 279.504L314.584 274.82L306.292 266.526L301.606 270.404C298.36 268.275 294.705 266.716 290.774 265.902L290.205 259.863H278.478L277.909 265.902C273.978 266.717 270.322 268.275 267.077 270.404L262.392 266.526L254.099 274.82L257.977 279.505C255.847 282.751 254.289 286.406 253.473 290.337L247.435 290.907V302.633L253.473 303.203C254.289 307.134 255.847 310.788 257.977 314.035L254.099 318.72L262.392 327.013L267.077 323.134C270.322 325.265 273.978 326.822 277.909 327.638L278.478 333.677H290.205L290.774 327.639C294.705 326.824 298.36 325.265 301.606 323.135L306.292 327.014L314.584 318.721L310.705 314.036C312.835 310.789 314.393 307.135 315.209 303.204L321.247 302.634V290.908L315.209 290.336ZM300.218 296.769C300.218 305.536 293.111 312.645 284.342 312.645C275.574 312.645 268.467 305.536 268.467 296.769C268.467 288 275.574 280.893 284.342 280.893C293.11 280.893 300.218 288 300.218 296.769Z" fill="#CA0026"/>
<path d="M205.701 344.171C205.116 341.347 203.997 338.721 202.467 336.39L205.252 333.025L199.296 327.069L195.931 329.855C193.599 328.324 190.974 327.206 188.151 326.62L187.742 322.283H179.318L178.91 326.62C176.087 327.206 173.46 328.325 171.129 329.855L167.764 327.069L161.808 333.025L164.594 336.39C163.063 338.721 161.945 341.347 161.359 344.171L157.022 344.58V353.003L161.359 353.413C161.945 356.236 163.063 358.861 164.594 361.193L161.808 364.558L167.764 370.514L171.129 367.728C173.46 369.259 176.087 370.378 178.91 370.963L179.318 375.301H187.742L188.151 370.963C190.974 370.378 193.6 369.259 195.931 367.728L199.296 370.514L205.252 364.558L202.467 361.193C203.997 358.861 205.117 356.236 205.701 353.413L210.039 353.003V344.58L205.701 344.171ZM194.933 348.792C194.933 355.089 189.827 360.195 183.53 360.195C177.232 360.195 172.126 355.089 172.126 348.792C172.126 342.493 177.231 337.388 183.53 337.388C189.828 337.388 194.933 342.493 194.933 348.792Z" fill="#CA0026"/>
<path d="M422.894 100.028C422.243 96.8917 421.002 93.9771 419.302 91.3882L422.396 87.6519L415.783 81.0375L412.045 84.1302C409.456 82.4318 406.541 81.189 403.406 80.5386L402.952 75.7219H393.598L393.145 80.5386C390.01 81.189 387.094 82.4318 384.505 84.1302L380.768 81.0375L374.153 87.6519L377.247 91.3892C375.548 93.9781 374.306 96.8927 373.656 100.029L368.839 100.482V109.835L373.656 110.29C374.306 113.425 375.549 116.339 377.247 118.929L374.153 122.667L380.768 129.281L384.505 126.187C387.094 127.887 390.01 129.13 393.145 129.779L393.598 134.596H402.952L403.406 129.78C406.541 129.13 409.456 127.887 412.045 126.187L415.783 129.281L422.396 122.667L419.302 118.93C421.002 116.34 422.244 113.426 422.894 110.291L427.71 109.836V100.483L422.894 100.028ZM410.937 105.157C410.937 112.151 405.269 117.819 398.275 117.819C391.282 117.819 385.613 112.15 385.613 105.157C385.613 98.164 391.282 92.4952 398.275 92.4952C405.268 92.4952 410.937 98.164 410.937 105.157Z" fill="#CA0026"/>
<path d="M73.1693 304.525C72.7767 302.632 72.0269 300.872 71.0006 299.308L72.8682 297.052L68.8751 293.058L66.6188 294.926C65.0552 293.9 63.2958 293.149 61.4026 292.757L61.1291 289.848H55.4809L55.2074 292.757C53.3142 293.149 51.5538 293.899 49.9912 294.926L47.7349 293.058L43.7408 297.052L45.6084 299.308C44.5821 300.872 43.8323 302.631 43.4397 304.525L40.531 304.799V310.446L43.4397 310.721C43.8323 312.614 44.5821 314.373 45.6084 315.937L43.7408 318.193L47.7349 322.187L49.9912 320.32C51.5548 321.346 53.3142 322.096 55.2074 322.488L55.4809 325.396H61.1291L61.4026 322.488C63.2958 322.096 65.0562 321.346 66.6188 320.32L68.8751 322.187L72.8682 318.193L71.0006 315.937C72.0269 314.373 72.7767 312.613 73.1693 310.721L76.077 310.446V304.799L73.1693 304.525ZM65.9497 307.623C65.9497 311.845 62.5264 315.269 58.304 315.269C54.0817 315.269 50.6583 311.845 50.6583 307.623C50.6583 303.401 54.0817 299.977 58.304 299.977C62.5264 299.977 65.9497 303.401 65.9497 307.623Z" fill="#CA0026"/>
<path d="M231.78 155.85H189.379V185.642H231.78V155.85Z" fill="#CA0026"/>
<path d="M189.943 156.213L210.365 175.139L231.07 156.466" stroke="#3F444D" stroke-miterlimit="10" stroke-linecap="round"/>
<path d="M189.912 185.108L203.944 169.349" stroke="#3F444D" stroke-miterlimit="10" stroke-linecap="round" stroke-linejoin="round"/>
<path d="M231.351 185.108L217.319 169.349" stroke="#3F444D" stroke-miterlimit="10" stroke-linecap="round" stroke-linejoin="round"/>
<path d="M419.098 314.681L347.883 324.45L354.747 374.486L425.962 364.717L419.098 314.681Z" fill="#CA0026"/>
<path d="M348.921 324.938L387.583 352.02L418.056 315.888" stroke="#3F444D" stroke-miterlimit="10" stroke-linecap="round"/>
<path d="M355.528 373.475L375.464 343.773" stroke="#3F444D" stroke-miterlimit="10" stroke-linecap="round" stroke-linejoin="round"/>
<path d="M425.127 363.929L397.93 340.692" stroke="#3F444D" stroke-miterlimit="10" stroke-linecap="round" stroke-linejoin="round"/>
<path d="M208.454 129.69C233.827 129.69 254.395 109.122 254.395 83.7493C254.395 58.3768 233.827 37.8083 208.454 37.8083C183.082 37.8083 162.513 58.3768 162.513 83.7493C162.513 109.122 183.082 129.69 208.454 129.69Z" fill="#CA0026"/>
<path d="M208.454 120.784C228.908 120.784 245.489 104.203 245.489 83.7494C245.489 63.2957 228.908 46.7146 208.454 46.7146C188.001 46.7146 171.42 63.2957 171.42 83.7494C171.42 104.203 188.001 120.784 208.454 120.784Z" fill="white"/>
<path d="M208.454 109.66C222.764 109.66 234.365 98.0594 234.365 83.7493C234.365 69.4392 222.764 57.8386 208.454 57.8386C194.144 57.8386 182.544 69.4392 182.544 83.7493C182.544 98.0594 194.144 109.66 208.454 109.66Z" fill="#CA0026"/>
<path d="M220.048 95.3462C226.453 88.9419 226.453 78.5585 220.048 72.1543C213.644 65.75 203.261 65.75 196.856 72.1543C190.452 78.5585 190.452 88.9419 196.856 95.3462C203.261 101.751 213.644 101.75 220.048 95.3462Z" fill="#E0E0E0"/>
<path d="M208.454 90.0814C212.026 90.0814 214.922 87.1857 214.922 83.6136C214.922 80.0415 212.026 77.1458 208.454 77.1458C204.882 77.1458 201.987 80.0415 201.987 83.6136C201.987 87.1857 204.882 90.0814 208.454 90.0814Z" fill="#CA0026"/>
<path d="M255.384 58.4222L255.738 56.6155C255.998 55.2822 256.834 54.1319 258.021 53.4707L264.227 50.0198L262.278 54.7774L255.384 58.4222Z" fill="#067A49"/>
<path d="M255.384 58.1585L257.02 59.0028C258.227 59.6257 259.648 59.6847 260.903 59.1632L267.46 56.4375L262.519 55.0137L255.384 58.1585Z" fill="#067A49"/>
<path d="M208.454 83.2248L263.94 53.8997" stroke="#067A49" stroke-miterlimit="10"/>
<path d="M338.618 421.011C338.604 420.572 337.128 377.021 330.045 370.133C323.155 363.435 315.247 369.884 314.915 370.162L314.204 369.311C314.294 369.235 323.218 361.95 330.818 369.339C338.22 376.537 339.668 419.166 339.726 420.978L338.618 421.011Z" fill="#263238"/>
<path d="M339.226 429.57C339.175 429.049 334.385 377.287 353.288 355.592L354.125 356.319C335.534 377.654 340.28 428.946 340.33 429.461L339.226 429.57Z" fill="#263238"/>
<path d="M338.527 424.095L337.42 424.021C337.458 423.435 341.119 365.174 327.253 352.421L328.003 351.605C342.259 364.717 338.686 421.676 338.527 424.095Z" fill="#263238"/>
<path d="M340.332 424.062L339.223 424.054C339.237 422.449 339.681 384.701 350.403 378.557C352.787 377.19 355.121 376.962 357.342 377.88C363.825 380.563 367.038 392.101 367.172 392.59L366.102 392.882C366.071 392.767 362.898 381.377 356.916 378.904C355.031 378.125 353.026 378.331 350.955 379.518C340.779 385.349 340.335 423.676 340.332 424.062Z" fill="#263238"/>
<path d="M336.156 424.09L335.05 424.027C335.067 423.729 336.668 394.197 328.697 383.792C326.767 381.271 324.67 380.07 322.455 380.225C317.233 380.59 312.854 388.232 312.811 388.309L311.845 387.763C312.035 387.427 316.56 379.527 322.377 379.119C324.98 378.934 327.405 380.282 329.578 383.119C337.797 393.85 336.227 422.861 336.156 424.09Z" fill="#263238"/>
<path d="M337.903 428.107C337.686 425.241 332.693 357.811 341.478 345.929L342.369 346.587C333.827 358.141 338.955 427.324 339.008 428.022L337.903 428.107Z" fill="#263238"/>
<path d="M361.32 381.604C361.32 381.604 355.713 383.675 357.616 388.134C362.979 400.696 375.762 402.034 375.762 402.034C375.762 402.034 381.76 392.538 376.843 385.163C370.066 374.995 361.462 378.321 361.32 381.604Z" fill="#067A49"/>
<path d="M336.818 375.982C336.818 375.982 342.43 375.747 342.75 380.585C343.068 385.421 330.591 398.802 330.591 398.802C330.591 398.802 321.687 395.584 323.6 383.513C325.512 371.444 335.423 373.008 336.818 375.982Z" fill="#067A49"/>
<path d="M339.539 347.796C339.539 347.796 337.182 347.505 336.296 345.385C333.652 339.058 342.738 332.235 354.887 335.839C354.887 335.839 355.209 346.53 348.671 350.747C342.133 354.964 339.539 347.796 339.539 347.796Z" fill="#067A49"/>
<path d="M318.718 380.951C318.718 380.951 320.675 378.269 317.719 378.006C314.764 377.744 301.971 383.476 305.335 396.598C305.335 396.598 321.79 391.231 322.36 385.738C322.931 380.243 318.718 380.951 318.718 380.951Z" fill="#067A49"/>
<path d="M353.8 352.49C353.8 352.49 354.539 350.056 357.326 349.038C360.112 348.02 370.466 348.659 370.608 362.204C370.608 362.204 354.682 364.851 352.71 359.691C350.739 354.532 353.8 352.49 353.8 352.49Z" fill="#067A49"/>
<path d="M345.203 363.746C345.203 363.746 346.274 361.89 348.32 362.883C350.366 363.876 356.399 370.084 350.646 377.577C350.646 377.577 339.957 371.15 340.831 366.639C341.636 362.482 345.203 363.746 345.203 363.746Z" fill="#067A49"/>
<path d="M319.015 367.013C319.015 367.013 320.559 364.99 318.297 364.739C316.036 364.488 305.905 367.193 308.264 377.307C308.264 377.307 320.608 376.379 321.136 372.177C321.666 367.977 319.015 367.013 319.015 367.013Z" fill="#067A49"/>
<path opacity="0.3" d="M329.488 394.344C328.563 387.765 331.893 380.441 336.818 375.982" stroke="black" stroke-width="0.5" stroke-miterlimit="10" stroke-linecap="round" stroke-linejoin="round"/>
<path opacity="0.3" d="M345.203 364.117C347.754 366.653 349.529 369.959 350.233 373.487" stroke="black" stroke-width="0.5" stroke-miterlimit="10" stroke-linecap="round" stroke-linejoin="round"/>
<path opacity="0.3" d="M361.32 381.604C366.41 383.864 371.2 388.647 373.638 393.654" stroke="black" stroke-width="0.5" stroke-miterlimit="10" stroke-linecap="round" stroke-linejoin="round"/>
<path opacity="0.3" d="M353.8 352.49C356.436 351.735 358.817 352.543 361.379 353.52C363.941 354.497 366.172 356.324 367.635 358.643" stroke="black" stroke-width="0.5" stroke-miterlimit="10" stroke-linecap="round" stroke-linejoin="round"/>
<path d="M331.461 354.772C331.461 354.772 335.198 355.218 335.415 352.93C335.631 350.641 323.062 341.735 312.748 349.098C312.748 349.098 315.923 359.312 323.477 361.171C331.031 363.03 331.461 354.772 331.461 354.772Z" fill="#067A49"/>
<path opacity="0.3" d="M331.346 354.959C327.416 349.677 317.77 347.961 314.485 349.152" stroke="black" stroke-width="0.5" stroke-miterlimit="10" stroke-linecap="round" stroke-linejoin="round"/>
<path opacity="0.3" d="M319.128 367.196C315.921 368.388 312.497 370.444 310.717 373.365" stroke="black" stroke-width="0.5" stroke-miterlimit="10" stroke-linecap="round" stroke-linejoin="round"/>
<path opacity="0.3" d="M307.093 391.617C309.6 386.81 313.814 382.915 318.803 380.794" stroke="black" stroke-width="0.5" stroke-miterlimit="10" stroke-linecap="round" stroke-linejoin="round"/>
<path opacity="0.3" d="M340.034 347.541C342.034 343.269 345.877 339.899 350.374 338.473" stroke="black" stroke-width="0.5" stroke-miterlimit="10" stroke-linecap="round" stroke-linejoin="round"/>
<path d="M353.331 439.646H323.161L319.907 411.917H356.585L353.331 439.646Z" fill="#263238"/>
<path d="M361.658 407.641H314.833V416.195H361.658V407.641Z" fill="#263238"/>
<path opacity="0.3" d="M320.353 416.194L320.937 421.798H355.554L356.14 416.188L320.353 416.194Z" fill="black"/>
<path d="M189.441 98.0242H76.7856C75.6677 98.0242 74.7615 98.9304 74.7615 100.048V144.083C74.7615 145.201 75.6677 146.107 76.7856 146.107H111.143C113.861 148.997 123.201 158.382 123.201 158.382V146.107H189.44C190.558 146.107 191.464 145.201 191.464 144.083V100.048C191.465 98.9304 190.559 98.0242 189.441 98.0242Z" fill="white"/>
<path d="M189.441 98.0242H76.7856C75.6677 98.0242 74.7615 98.9304 74.7615 100.048V144.083C74.7615 145.201 75.6677 146.107 76.7856 146.107H111.143C113.861 148.997 123.201 158.382 123.201 158.382V146.107H189.44C190.558 146.107 191.464 145.201 191.464 144.083V100.048C191.465 98.9304 190.559 98.0242 189.441 98.0242Z" fill="#CA0026"/>
<path d="M101.479 126.286C101.479 129.354 98.8882 131.14 94.0351 131.14H84.1262V113.534H93.5323C98.3863 113.534 100.65 115.47 100.65 118.136C100.65 119.772 99.82 121.129 98.2102 121.933C100.271 122.688 101.479 124.198 101.479 126.286ZM89.9604 117.683V120.299H92.7274C94.0597 120.299 94.6639 119.846 94.6639 118.991C94.6639 118.136 94.0597 117.683 92.7274 117.683H89.9604ZM95.4934 125.606C95.4934 124.7 94.839 124.222 93.5313 124.222H89.9604V126.988H93.5313C94.839 126.989 95.4934 126.512 95.4934 125.606Z" fill="white"/>
<path d="M111.112 126.713H109.503V131.139H103.567V113.534H112.042C116.947 113.534 120.065 116.099 120.065 120.174C120.065 122.714 118.858 124.626 116.746 125.707L120.443 131.139H114.106L111.112 126.713ZM111.665 118.112H109.503V122.235H111.665C113.301 122.235 114.08 121.456 114.08 120.173C114.079 118.891 113.3 118.112 111.665 118.112Z" fill="white"/>
<path d="M134.3 128.071H127.61L126.428 131.139H120.393L128.088 113.534H133.923L141.618 131.139H135.482L134.3 128.071ZM132.665 123.795L130.955 119.369L129.245 123.795H132.665Z" fill="white"/>
<path d="M159.929 113.534V131.139H155.05L148.361 123.142V131.139H142.577V113.534H147.456L154.146 121.532V113.534H159.929Z" fill="white"/>
<path d="M162.797 113.534H171.473C177.358 113.534 181.408 116.879 181.408 122.337C181.408 127.794 177.358 131.139 171.473 131.139H162.797V113.534ZM171.222 126.512C173.712 126.512 175.422 125.028 175.422 122.337C175.422 119.646 173.712 118.162 171.222 118.162H168.733V126.511H171.222V126.512Z" fill="white"/>
<path d="M187.793 240.171C180.334 245.876 175.982 254.816 176.331 264.2C176.563 270.43 178.524 277.975 183.825 286.66C200.155 313.415 220.27 299.303 235.249 294.035C251.083 288.465 268.008 280.763 280.076 274.255C285.376 271.397 284.135 269.159 284.135 269.159C284.135 269.159 248.03 204.953 243.183 202.925C239.224 201.269 201.492 229.695 187.793 240.171Z" fill="#067A49"/>
<path d="M213.495 295.164C213.419 296.225 234.997 366.819 242.225 370.188C249.454 373.558 271.482 365.544 272.348 360.269C273.214 354.995 254.724 281.067 254.724 281.067L213.495 295.164Z" fill="#067A49"/>
<path d="M279.891 272.915C302.335 264.207 325.57 271.875 325.57 271.875C311.259 260.159 302.225 242.769 290.085 222.275C272.925 193.306 269.333 159.768 268.893 159.78C268.845 181.942 243.184 202.924 243.184 202.924C243.184 202.924 225.3 219.999 244.057 250.346C262.813 280.695 279.891 272.915 279.891 272.915Z" fill="#067A49"/>
<path opacity="0.8" d="M279.891 272.915C302.335 264.207 325.57 271.875 325.57 271.875C311.259 260.159 302.225 242.769 290.085 222.275C272.925 193.306 269.333 159.768 268.893 159.78C268.845 181.942 243.184 202.924 243.184 202.924C243.184 202.924 225.3 219.999 244.057 250.346C262.813 280.695 279.891 272.915 279.891 272.915Z" fill="white"/>
<path opacity="0.3" d="M255.921 285.882L228.051 296.894L257.547 292.514L255.921 285.882Z" fill="black"/>
<path d="M248.975 303.428L255.548 323.746C255.548 323.746 260.176 323.451 266.222 321.4L270.855 319.099L269.42 314.83C269.42 314.83 261.198 312.358 258.032 301.761L248.975 303.428Z" fill="#263238"/>
<path opacity="0.3" d="M266.223 321.399L264.323 316.191C264.323 316.191 255.852 315.16 252.798 302.724L248.975 303.428L255.548 323.746C255.548 323.746 261.528 323.094 266.223 321.399Z" fill="black"/>
<path d="M409.202 292.764C446.168 273.553 451.74 211.036 421.647 153.127C391.553 95.2179 337.19 63.8463 300.224 83.0566C263.257 102.267 257.686 164.784 287.779 222.693C317.872 280.602 372.235 311.974 409.202 292.764Z" fill="#067A49"/>
<path opacity="0.5" d="M409.202 292.764C446.168 273.553 451.74 211.036 421.647 153.127C391.553 95.2179 337.19 63.8463 300.224 83.0566C263.257 102.267 257.686 164.784 287.779 222.693C317.872 280.602 372.235 311.974 409.202 292.764Z" fill="white"/>
<path opacity="0.1" d="M429.692 170.761C433.517 181.217 446.37 226.017 395.845 248.555C338.409 274.174 269.681 145.465 269.681 145.465L268.431 147.125C268.124 170.437 274.45 197.017 287.793 222.693C317.889 280.604 372.254 311.976 409.222 292.765C442.456 275.493 450.31 223.22 429.692 170.761Z" fill="black"/>
<path d="M278.896 199.307L328.551 182.563L345.014 216.81L303.101 246.831C303.101 246.831 288.135 231.854 278.896 199.307Z" fill="#067A49"/>
<path d="M347.125 194.745C351.815 204.419 350.113 214.929 343.323 218.22C336.534 221.51 327.23 216.336 322.54 206.663C317.85 196.989 319.553 186.479 326.342 183.188C333.132 179.897 342.436 185.072 347.125 194.745Z" fill="#067A49"/>
<path opacity="0.2" d="M347.125 194.745C351.815 204.419 350.113 214.929 343.323 218.22C336.534 221.51 327.23 216.336 322.54 206.663C317.85 196.989 319.553 186.479 326.342 183.188C333.132 179.897 342.436 185.072 347.125 194.745Z" fill="white"/>
<path d="M410.133 292.279C446.586 273.336 451.741 211.035 421.647 153.126C391.554 95.2172 337.608 63.6291 301.155 82.5722C264.703 101.515 259.548 163.816 289.641 221.725C319.735 279.634 373.681 311.223 410.133 292.279Z" stroke="#263238" stroke-width="3" stroke-miterlimit="10"/>
<path d="M390.404 97.0075C403.896 108.08 415.212 121.71 423.594 137.022C425.973 141.369 428.114 145.845 430.002 150.427C430.359 151.293 431.787 150.913 431.425 150.034C424.702 133.721 414.876 118.754 402.545 106.128C399.037 102.537 395.329 99.1478 391.448 95.9635C390.719 95.3662 389.669 96.4044 390.404 97.0075Z" fill="#067A49"/>
<path d="M433.966 159.208C434.728 161.142 435.49 163.075 436.252 165.009C436.398 165.38 436.746 165.638 437.161 165.525C437.514 165.427 437.823 164.989 437.676 164.616C436.914 162.683 436.152 160.749 435.389 158.816C435.244 158.445 434.895 158.187 434.481 158.3C434.128 158.397 433.819 158.836 433.966 159.208Z" fill="#067A49"/>
<path d="M141.722 420.488L142.949 433.349L152.621 434.407L153.603 420.576L141.722 420.488Z" fill="#B97964"/>
<path d="M140.854 431.296C140.834 430.788 141.276 430.385 141.774 430.404L144.714 430.518C145.457 430.528 146.215 431.91 146.646 432.528C148.504 435.192 149.94 434.215 152.033 431.763C153.345 431.626 153.676 433.164 153.778 433.577L156.111 442.717C156.313 443.481 155.872 444.267 155.123 444.475C154.99 444.511 154.852 444.528 154.714 444.524C150.726 444.469 148.84 444.442 143.877 444.373L128.697 444.163C124.56 444.106 123.759 439.841 125.468 439.471C133.156 437.85 138.614 435.626 141.013 433.385C141.349 433.089 140.89 432.227 140.854 431.296Z" fill="#263238"/>
<path d="M139.435 434.118C140.563 434.291 141.604 434.995 142.199 435.989" stroke="white" stroke-width="0.5" stroke-miterlimit="10" stroke-linecap="round" stroke-linejoin="round"/>
<path d="M137.255 435.385C138.385 435.559 139.424 436.262 140.019 437.256" stroke="white" stroke-width="0.5" stroke-miterlimit="10" stroke-linecap="round" stroke-linejoin="round"/>
<path d="M134.573 436.663C135.703 436.836 136.742 437.539 137.337 438.533" stroke="white" stroke-width="0.5" stroke-miterlimit="10" stroke-linecap="round" stroke-linejoin="round"/>
<path d="M164.679 415.253L175.656 422.068L182.358 415.013L171.948 405.854L164.679 415.253Z" fill="#B97964"/>
<path d="M172.753 422.491C172.337 422.2 172.284 421.604 172.601 421.219L174.472 418.948C174.931 418.362 176.489 418.598 177.242 418.629C180.487 418.764 180.58 417.029 179.898 413.879C180.583 412.753 182.008 413.42 182.397 413.589L191.083 417.27C191.813 417.571 192.171 418.4 191.883 419.121C191.832 419.249 191.762 419.369 191.674 419.476C189.214 422.615 188.051 424.101 184.989 428.008L175.625 439.956C173.073 443.213 169.195 441.267 169.937 439.683C173.304 432.584 174.841 426.894 174.513 423.628C174.48 423.183 173.516 423.027 172.753 422.491Z" fill="#263238"/>
<path d="M174.14 425.329C174.961 424.536 176.151 424.134 177.302 424.263" stroke="white" stroke-width="0.5" stroke-miterlimit="10" stroke-linecap="round" stroke-linejoin="round"/>
<path d="M173.827 427.831C174.648 427.038 175.838 426.637 176.989 426.765" stroke="white" stroke-width="0.5" stroke-miterlimit="10" stroke-linecap="round" stroke-linejoin="round"/>
<path d="M173.218 430.739C174.039 429.946 175.229 429.545 176.38 429.672" stroke="white" stroke-width="0.5" stroke-miterlimit="10" stroke-linecap="round" stroke-linejoin="round"/>
<path d="M147.871 295.204C147.871 295.204 127.52 342.96 128.943 345.261C130.725 348.143 179.793 408.152 179.793 408.152L169.52 420.487C169.52 420.487 98.3844 363.865 102.217 342.533C106.05 321.202 128.068 273.001 128.068 273.001C150.424 277.494 147.871 295.204 147.871 295.204Z" fill="#067A49"/>
<path opacity="0.6" d="M147.871 295.204C147.871 295.204 127.52 342.96 128.943 345.261C130.725 348.143 179.793 408.152 179.793 408.152L169.52 420.487C169.52 420.487 98.3844 363.865 102.217 342.533C106.05 321.202 128.068 273.001 128.068 273.001C150.424 277.494 147.871 295.204 147.871 295.204Z" fill="white"/>
<path opacity="0.2" d="M161.374 395.881C161.535 401.595 160.881 407.303 159.431 412.833C153.936 407.967 146.864 401.539 139.573 394.432L138.027 357.402C144.9 366.148 154.186 387.661 161.374 395.881Z" fill="black"/>
<path opacity="0.2" d="M145.138 288.039C145.97 288.263 146.754 288.635 147.453 289.137C147.929 291.115 148.07 293.159 147.872 295.183C147.872 295.183 144.017 306.15 138.681 317.364C139.939 298.72 145.138 288.039 145.138 288.039Z" fill="black"/>
<path d="M126.858 282.247C126.858 282.247 128.631 265.486 130.979 257.286C130.979 257.286 160.609 250.763 164.82 260.861C164.881 260.905 164.879 260.967 164.878 261.018L164.951 261.02C164.951 261.02 187.839 295.283 156.162 427.677L139.79 427.011L141.764 356.726L144.942 288.086L126.858 282.247Z" fill="#067A49"/>
<path opacity="0.6" d="M126.858 282.247C126.858 282.247 128.631 265.486 130.979 257.286C130.979 257.286 160.609 250.763 164.82 260.861C164.881 260.905 164.879 260.967 164.878 261.018L164.951 261.02C164.951 261.02 187.839 295.283 156.162 427.677L139.79 427.011L141.764 356.726L144.942 288.086L126.858 282.247Z" fill="white"/>
<path d="M131.288 251.405L131.123 257.311L165.118 260.879L165.259 255.882L131.288 251.405Z" fill="#263238"/>
<path d="M139.128 252.83L138.464 258.46L145.89 259.337L146.554 253.706L139.128 252.83Z" stroke="white" stroke-miterlimit="10"/>
<path d="M132.211 208.254C133.09 201.243 137.904 200.809 137.904 200.809C137.904 200.809 141.82 200.537 148.448 200.723C153.575 201.042 158.673 201.724 163.703 202.763C168.472 203.696 173.166 204.97 177.751 206.578C176.914 208.765 176.154 210.842 175.448 212.795C167.311 235.111 166.275 243.254 165.114 255.899L131.128 251.999C130.439 227.958 131.418 214.781 132.211 208.254Z" fill="#067A49"/>
<path d="M143.073 200.381C139.137 200.168 134.792 199.751 132.907 200.565C128.83 200.849 110.599 216.377 110.599 216.377L118.944 198.427L108.326 194.463C108.326 194.463 91.1736 220.381 94.5143 230.108C97.0697 237.548 118.548 227.463 128.515 222.306C128.26 228.674 128.387 237.706 128.599 253.025L125.135 279.615L128.067 273.085C128.067 273.085 134.354 232.712 134.105 223.963C133.853 215.214 143.073 200.381 143.073 200.381Z" fill="#263238"/>
<path d="M119.495 171.638C120.04 170.897 121.283 170.943 121.312 171.652C121.34 172.361 121.5 174.612 121.439 176.397C121.414 177.167 121.433 178.241 121.45 179.274C121.467 179.395 121.485 179.515 121.484 179.64L121.47 180.676C121.474 181.187 121.471 181.638 121.452 181.96L121.437 183.15C121.422 183.86 121.275 184.561 121.003 185.217L117.71 190.841L113.88 190.776C110.718 189.11 112.829 182.819 112.829 182.819L113.394 179.216C113.584 178.004 114.616 177.102 115.843 177.076L118.891 177.074C118.892 177.059 118.894 177.041 118.896 177.026C119.012 175.767 118.95 172.38 119.495 171.638Z" fill="#B97964"/>
<path d="M167.826 172.43C171.656 174.946 177.344 192.125 169.176 197.259C161.009 202.394 140.167 197.343 138.589 189.581C137.646 185.069 139.308 180.409 142.893 177.511C142.893 177.511 141.778 160.461 151.015 159.154C160.251 157.847 165.673 165.013 165.673 165.013C165.673 165.013 163.998 169.914 167.826 172.43Z" fill="#263238"/>
<path d="M161.715 189.077L156.618 189.109L156.614 189.112L151.469 190.35C151.452 190.419 151.433 190.489 151.413 190.566L150.984 197.725C150.734 199.833 148.063 201.111 146.572 201.785C145.665 202.252 143.034 207.654 147.557 212.843C148.889 214.382 151.679 212.786 153.497 211.714C161.097 206.688 161.713 202.55 161.713 202.55C159.724 199.925 160.654 193.661 161.715 189.077Z" fill="#B97964"/>
<path opacity="0.2" d="M151.006 197.364C151.006 197.364 159.009 195.566 159.009 191.574L151.157 194.826L151.006 197.364Z" fill="black"/>
<path d="M167.789 179.695C164.381 187.377 163.114 190.688 157.681 193.439C149.506 197.563 140.935 192.198 141.973 183.746C142.964 176.159 148.32 164.879 157.103 164.217C165.885 163.555 171.194 172.001 167.789 179.695Z" fill="#B97964"/>
<path d="M158.955 176.575C158.848 176.555 158.754 176.494 158.698 176.397C157.828 174.876 156.303 174.859 156.285 174.859C156.059 174.857 155.888 174.677 155.908 174.451C155.929 174.226 156.132 174.045 156.362 174.045C156.442 174.046 158.356 174.066 159.436 175.953C159.543 176.141 159.465 176.393 159.263 176.516C159.164 176.575 159.055 176.592 158.955 176.575Z" fill="#263238"/>
<path d="M147.028 171.78C146.956 171.729 146.907 171.648 146.9 171.549C146.885 171.344 147.049 171.14 147.266 171.092C149.437 170.613 150.547 171.808 150.594 171.861C150.724 172.005 150.69 172.245 150.516 172.397C150.343 172.548 150.097 172.553 149.966 172.41C149.922 172.362 149.047 171.449 147.32 171.831C147.209 171.856 147.104 171.834 147.028 171.78Z" fill="#263238"/>
<path d="M150.681 176.876C150.681 176.876 148.454 179.506 146.43 180.955C146.077 181.208 146.076 181.733 146.416 181.991C147.292 182.656 148.561 182.675 148.561 182.675L150.681 176.876Z" fill="#A24E3F"/>
<path d="M156.17 177.387C156.185 177.379 156.197 177.38 156.211 177.371L154.505 176.379C154.505 176.379 154.751 177.085 155.234 177.391C154.897 177.603 154.579 177.998 154.394 178.495C154.081 179.333 154.258 180.133 154.79 180.281C155.323 180.43 156.009 179.87 156.322 179.032C156.58 178.341 156.502 177.683 156.17 177.387Z" fill="#263238"/>
<path d="M148.163 174.959C148.166 174.957 148.169 174.957 148.173 174.955L146.467 173.963C146.467 173.963 146.746 174.757 147.292 175.024C146.962 175.229 146.654 175.606 146.475 176.082C146.169 176.895 146.352 177.673 146.883 177.821C147.414 177.968 148.092 177.43 148.397 176.618C148.666 175.902 148.556 175.214 148.163 174.959Z" fill="#263238"/>
<path d="M148.179 185.004C148.52 185.979 148.775 187.777 148.775 187.777C148.943 187.781 149.112 187.784 149.281 187.779C151.569 187.768 152.64 187.011 153.134 186.177C153.403 185.719 153.493 185.232 153.515 184.835C153.544 184.376 153.46 184.043 153.46 184.043C152.238 184.77 150.102 184.943 148.959 184.988C148.48 185.012 148.179 185.004 148.179 185.004Z" fill="#263238"/>
<path d="M148.959 184.987L149.157 185.8C151.311 185.784 152.831 185.486 153.515 184.834C153.544 184.375 153.46 184.042 153.46 184.042C152.237 184.769 150.101 184.942 148.959 184.987Z" fill="white"/>
<path d="M149.281 187.778C151.569 187.767 152.64 187.01 153.134 186.176C152.355 186.209 151.416 186.336 150.588 186.688C149.952 186.955 149.549 187.364 149.281 187.778Z" fill="#FD504E"/>
<path d="M161.08 192.048C169.37 188.14 174.33 167.212 161.134 164.015C147.939 160.819 145.785 174.84 145.785 174.84C150.629 159.699 164.091 169.906 164.091 169.906C162.264 174.598 162.577 181.85 162.577 181.85C163.736 186.377 161.079 192.067 161.08 192.048Z" fill="#263238"/>
<path d="M167.679 164.19C176.004 168.917 172.716 174.522 172.716 174.522C172.716 174.522 178.127 185.041 175.938 191.715C173.75 198.388 163.418 199.136 163.418 199.136C173.659 197.969 174.981 186.555 164.67 180.966C156.137 176.344 159.251 166.75 159.251 166.75C159.251 166.75 163.009 161.558 167.679 164.19Z" fill="#263238"/>
<path d="M158.966 175.86C156.249 168.362 160.263 165.631 160.263 165.631" stroke="#263238" stroke-width="0.5" stroke-linecap="round" stroke-linejoin="round"/>
<path d="M139.028 192.859C132.265 183.636 143.282 176.933 143.282 176.933" stroke="#263238" stroke-width="0.5" stroke-linecap="round" stroke-linejoin="round"/>
<path d="M168.041 185.255C166.56 186.618 164.682 187.187 163.152 187.115C160.851 187.007 160.853 183.255 162.266 181.341C163.538 179.619 166.039 178.979 167.977 180.022C169.887 181.05 169.734 183.697 168.041 185.255Z" fill="#B97964"/>
<path opacity="0.2" d="M163.679 183.471C163.975 182.725 164.575 182.098 165.311 181.767C166.047 181.437 166.909 181.406 167.656 181.685" stroke="black" stroke-width="0.5" stroke-miterlimit="10" stroke-linecap="round" stroke-linejoin="round"/>
<path opacity="0.2" d="M110.599 216.377C110.599 216.377 110.073 220.671 106.785 223.042C106.785 223.042 114.863 220.37 112.545 214.745L110.599 216.377Z" fill="black"/>
<path d="M109.367 194.852L112.644 189.487L118.021 190.312L116.168 197.39L109.367 194.852Z" fill="#B97964"/>
<path d="M209.145 216.165C204.534 213.625 183.691 207.4 179.392 206.1C178.629 205.869 177.889 205.705 177.186 205.589C175.026 204.883 172.646 204.321 169.977 203.946C169.977 203.946 162.977 216.128 162.341 228.829C161.706 241.53 168.535 300.397 168.535 300.397L178.836 297.794C178.836 297.794 172.732 261.207 177.169 223.035L196.356 224.748C196.356 224.748 181.99 237.7 181.79 238.063L188.607 245.6C188.607 245.6 203.924 231.9 208.172 229.082C212.42 226.261 213.155 218.373 209.145 216.165Z" fill="#263238"/>
<path opacity="0.2" d="M196.356 224.748C196.356 224.748 198.187 223.041 202.079 223.418C202.079 223.418 199.393 220.254 193.987 224.536L196.356 224.748Z" fill="black"/>
<path d="M180.913 244.851C180.913 244.851 178.2 244.559 176.46 245.996C174.72 247.432 174.421 250.434 173.804 251.998C172.863 254.382 175.405 253.317 175.901 251.998C176.602 250.136 176.603 250.33 176.603 250.33C176.683 251.263 173.289 258.574 173.548 259.855C173.807 261.137 174.726 260.126 174.726 260.126C174.726 260.126 173.95 261.924 174.578 262.426C174.741 262.556 175.331 262.594 175.813 261.831C176.899 260.113 178.99 256.389 178.99 256.389C178.866 256.601 176.612 261.38 176.368 262.14C176.05 263.132 176.406 263.764 176.987 263.929C177.816 264.166 180.811 258.334 181.109 258.177C181.109 258.177 179.272 261.476 179.865 262.417C180.457 263.358 181.726 261.343 182.509 259.355C183.226 257.531 184.01 254.094 184.559 252.171C185.236 249.8 186.257 248.107 184.495 246.609C182.734 245.112 180.913 244.851 180.913 244.851Z" fill="#B97964"/>
<path d="M179.094 245.342C179.292 245.21 183.308 239.679 183.308 239.679L188.379 245.342L184.823 247.91C184.823 247.91 178.304 245.21 178.699 245.276" fill="#B97964"/>
</svg>
