<svg width="1442" height="282" viewBox="0 0 1442 282" fill="none" xmlns="http://www.w3.org/2000/svg">
<path opacity="0.71" d="M1.00751 170.449C226.57 207.242 453.109 242.485 679.407 227.386C919.729 211.072 1166.61 149.047 1440.99 107.441M1440.99 112.081C1195.71 149.993 957.099 205.921 713.076 223.123C475.187 239.727 235.706 207.049 1.00751 170.078M1.00751 170.849C217.397 207.488 431.016 245.383 645.746 231.724C882.577 216.373 1137.74 148.078 1440.99 102.791M1.00751 171.278C208.201 207.8 408.9 248.336 612.077 236.137C730.958 228.865 855.694 207.147 993.59 180.666C1128.36 154.772 1277.48 122.644 1440.99 98.1931M1.00751 171.747C198.945 208.199 386.762 251.424 578.416 240.634C694.324 233.937 818.617 211.605 960.162 183.634C1101.63 155.654 1262 120.132 1441 93.548M1.00751 172.253C189.658 208.657 364.594 254.575 544.747 245.218C657.697 239.188 781.518 216.105 926.711 186.64C1074.89 156.534 1246.52 117.603 1440.99 88.9001M1.00751 172.808C180.305 209.229 342.388 257.889 511.078 249.897C621.063 244.537 744.396 220.666 893.267 189.691C1048.16 157.444 1231.07 115.093 1440.99 84.2577M1.00751 173.422C170.891 209.916 320.145 261.25 477.417 254.67C584.444 249.992 707.273 225.309 859.831 192.784C1021.42 158.317 1215.62 112.528 1440.99 79.5986M1.00751 174.101C161.41 210.726 297.857 264.748 443.748 259.547C547.81 255.603 670.091 229.99 826.387 195.919C994.656 159.202 1200.22 110.032 1440.99 74.9647M1.00751 174.871C151.823 211.733 275.501 268.494 410.086 264.535C511.183 261.392 632.924 234.8 792.943 199.107C886.398 178.263 991.991 154.317 1111.46 129.721C1213.98 108.594 1325.69 87.4931 1440.99 70.4591M1440.99 61.1912C1311.8 80.1765 1186.92 103.966 1073.22 127.786C941.207 155.459 826.214 182.361 726.064 205.634C558.485 244.643 437.9 273.424 342.756 274.873C230.564 276.344 132.267 214.413 1.00751 176.772M1.00751 175.756C142.117 212.953 253.078 272.302 376.417 269.638C474.549 267.294 595.719 239.674 759.507 202.343C856.34 180.34 966.58 154.847 1092.34 128.755C1200.45 106.272 1318.76 83.8613 1440.99 65.8447M1440.99 56.5684C1304.85 76.5224 1173.35 101.59 1054.1 126.812C915.788 156.017 796.074 184.401 692.627 208.978C521.212 249.684 401.251 279.668 309.087 280.238C207.945 280.539 122.253 216.175 1.00751 177.959M1440.99 14.8991C1242.27 43.4119 1051.13 80.1737 881.976 117.846C686.569 161.43 524.32 204.436 391.657 242.128C342.411 256.119 297.984 269.195 257.859 281M189.741 281C132.575 259.971 78.6524 211.937 1.00751 181.121M1440.99 47.2782C1290.94 69.1415 1146.22 96.8643 1015.85 124.85C864.958 157.176 735.823 188.656 625.747 215.845C529.628 239.607 449.881 259.787 382.716 273.619C369.421 276.352 356.704 278.825 344.528 280.997M234.43 281C161.56 264.999 94.7924 212.3 1.00751 179.382M1440.99 51.9484C1297.91 72.8766 1159.81 99.2623 1034.97 125.832C890.384 156.62 765.963 186.526 659.184 212.381C565.459 235.09 486.876 254.447 419.958 267.785C391.882 273.393 366.148 277.901 342.433 281M153.039 281C108.373 257.208 65.2674 212.663 1.00751 183.268M1440.99 42.6693C1284.01 65.5181 1132.7 94.5781 996.721 123.864C839.532 157.809 705.644 190.791 592.304 219.374C493.774 244.199 412.879 265.27 345.466 279.615C343.259 280.084 341.067 280.545 338.89 281M120.879 281C86.8425 255.684 53.2562 214.332 1.00751 186.057M1440.99 38.0465C1277.05 61.8444 1119.1 92.1662 977.601 122.873C814.046 158.365 675.496 193.005 558.86 222.969C468.258 246.293 392.858 266.375 329.439 280.997M91.8872 281C67.1141 255.12 42.0558 217.043 1 189.8M1440.99 33.4238C1270.1 58.1819 1105.54 89.8157 958.465 121.877C788.604 159.01 645.281 195.199 525.416 226.64C444.619 247.836 376.14 266.498 317.653 281M65.3125 281C48.6394 255.555 31.2907 221.216 1.00751 195.157M1440.99 28.8038C1263.14 54.4971 1091.92 87.3647 939.345 120.88C763.118 159.596 615.058 197.427 491.973 230.387C419.913 249.604 357.838 266.869 304.058 281M35.5097 281C32.7621 269.873 31.5235 257.495 31.2757 245.109C30.9154 228.237 21.4491 208.987 1.00751 192.525M1440.99 24.167C1256.19 50.8067 1078.33 84.9891 920.224 119.872C737.602 160.165 584.849 199.747 458.537 234.211C394.69 251.647 338.762 267.503 289.607 281M12.4482 281C12.2605 270.222 13.3715 258.573 15.3984 247.03C18.0334 232.028 13.8069 214.91 1.00751 199.526M1440.99 19.5526C1249.23 47.1302 1064.72 82.5521 901.097 118.862C712.093 160.785 554.589 202.066 425.093 238.125C368.693 253.791 318.569 268.265 273.902 281M1.00751 244.149C3.27462 235.342 3.40975 225.945 1.00751 216.686M1440.99 10.2847C1235.3 39.7243 1037.48 77.7032 862.849 116.821C661.008 162.024 494 206.834 358.213 246.229C315.618 258.564 276.657 270.23 241.006 281M1440.99 5.66467C1228.34 36.0366 1023.86 75.2857 843.728 115.797C635.476 162.72 463.701 209.347 324.769 250.433C288.608 261.144 255.089 271.38 224.01 281M1440.99 1C1221.36 32.2681 1010.19 72.7901 824.6 114.764C609.885 163.331 433.283 211.767 291.326 254.751C261.23 263.838 232.974 272.617 206.452 281" stroke="#067A49" stroke-opacity="0.2"/>
</svg>