<svg width="532" height="484" viewBox="0 0 532 484" fill="none" xmlns="http://www.w3.org/2000/svg">
<path d="M28.2383 94.3594V104.847L6.67572e-05 121.151V110.663L28.2383 94.3594Z" fill="#04492C"/>
<path d="M112.953 45.449V55.9367L84.7153 72.2403V61.7525L112.953 45.449Z" fill="#04492C"/>
<path d="M7.62939e-05 45.449H112.953L7.62939e-05 110.663V45.449Z" fill="#067A49"/>
<path d="M227.511 144.194V154.681L171.034 187.288V176.8L227.511 144.194Z" fill="#04492C"/>
<path d="M171.034 176.8V187.288L28.2383 104.847V94.3591L171.034 176.8Z" fill="#04492C"/>
<path d="M28.2383 94.3592L84.715 61.7527L227.511 144.194L171.034 176.8L28.2383 94.3592Z" fill="#067A49"/>
<path d="M171.597 217.04C175.818 225.77 182.751 231.243 191.433 232.976C191.61 233.008 191.802 233.04 191.995 233.072C192.284 233.136 192.572 233.185 192.877 233.217C193.359 233.281 193.856 233.345 194.354 233.393C194.386 233.393 194.418 233.393 194.45 233.409C194.482 233.409 194.514 233.409 194.546 233.425H194.642C195.974 233.554 197.338 233.586 198.719 233.522C199.04 233.505 199.377 233.505 199.714 233.473C199.746 233.49 199.762 233.49 199.794 233.473H199.987C200.003 233.473 200.035 233.457 200.067 233.457C200.436 233.441 200.789 233.409 201.158 233.361C201.527 233.329 201.896 233.281 202.265 233.233C203.084 233.137 203.919 233.008 204.769 232.832H204.833C204.977 232.8 205.138 232.751 205.282 232.735C205.507 232.687 205.732 232.639 205.972 232.575C206.47 232.479 206.984 232.35 207.497 232.222C207.93 232.11 208.364 231.981 208.797 231.853C209.054 231.789 209.311 231.708 209.567 231.628C210.033 231.484 210.482 231.339 210.948 231.179C211.156 231.115 211.365 231.05 211.573 230.97C212.312 230.713 213.066 230.441 213.804 230.136H213.82C213.9 230.103 213.981 230.071 214.061 230.023C215.409 229.493 216.757 228.884 218.121 228.21C218.153 228.193 218.185 228.178 218.234 228.161C218.346 228.097 218.458 228.049 218.571 227.985C218.699 227.921 218.827 227.841 218.956 227.776C219.373 227.568 219.774 227.359 220.192 227.151C220.866 226.781 221.54 226.412 222.23 226.011C222.439 225.883 222.647 225.77 222.856 225.642C223.434 225.305 223.979 224.968 224.541 224.615C225.889 223.78 227.221 222.882 228.553 221.935C228.955 221.646 229.34 221.373 229.741 221.084C229.917 220.956 230.078 220.843 230.255 220.699C230.608 220.442 230.945 220.17 231.298 219.897C231.458 219.768 231.619 219.656 231.779 219.544C231.924 219.431 232.084 219.303 232.245 219.175C232.437 219.03 232.63 218.87 232.822 218.709C233.208 218.404 233.577 218.099 233.946 217.794C236.529 215.676 239.049 213.365 241.488 210.893C241.617 210.765 241.745 210.637 241.89 210.508C242.05 210.347 242.21 210.171 242.355 210.01C242.869 209.497 243.366 208.967 243.864 208.422C243.96 208.325 244.04 208.229 244.137 208.149C244.265 208.02 244.393 207.876 244.506 207.732C245.581 206.56 246.64 205.356 247.683 204.137C247.924 203.864 248.165 203.575 248.405 203.286C248.405 203.27 248.422 203.254 248.422 203.254C249.128 202.403 249.834 201.537 250.524 200.654C250.556 200.606 250.588 200.558 250.636 200.526C250.652 200.494 250.684 200.478 250.684 200.446C251.455 199.467 252.209 198.471 252.963 197.444H252.979L253.557 196.626C253.894 196.16 254.231 195.695 254.552 195.229C255.066 194.491 255.579 193.737 256.093 192.983C256.141 192.919 256.205 192.838 256.253 192.774C256.317 192.678 256.381 192.582 256.461 192.485C256.574 192.293 256.686 192.116 256.814 191.924C256.927 191.763 257.039 191.603 257.135 191.442C257.392 191.057 257.633 190.656 257.89 190.255C258.21 189.757 258.532 189.243 258.853 188.746C259.27 188.088 259.687 187.414 260.088 186.724C260.233 186.483 260.393 186.226 260.538 185.986C260.57 185.906 260.618 185.841 260.65 185.777C260.682 185.729 260.715 185.681 260.73 185.617C261.132 184.911 261.549 184.221 261.95 183.514C262.416 182.696 262.865 181.862 263.298 181.027C263.523 180.609 263.732 180.208 263.94 179.791C264.149 179.39 264.357 179.005 264.566 178.603C264.726 178.298 264.887 177.977 265.031 177.672C265.369 177.03 265.674 176.388 265.962 175.747C266.075 175.506 266.187 175.281 266.299 175.057C267.134 173.275 267.936 171.462 268.691 169.648C268.803 169.391 268.899 169.151 268.996 168.894C269.14 168.541 269.284 168.188 269.429 167.835C270.247 165.797 270.985 163.758 271.675 161.72C271.692 161.656 271.724 161.592 271.756 161.512C271.756 161.495 271.756 161.495 271.756 161.48C272.077 160.533 272.382 159.586 272.67 158.639C272.703 158.543 272.735 158.446 272.751 158.334C272.863 157.997 272.959 157.66 273.056 157.307C273.136 157.066 273.2 156.809 273.28 156.569C273.65 155.317 273.97 154.049 274.292 152.797C274.372 152.492 274.436 152.188 274.5 151.883L274.789 150.679C274.869 150.358 274.933 150.037 275.014 149.716C275.094 149.331 275.158 148.962 275.238 148.561C275.319 148.207 275.383 147.839 275.463 147.47C275.495 147.325 275.511 147.197 275.543 147.052C275.688 146.266 275.816 145.495 275.945 144.725C275.961 144.597 275.992 144.452 276.009 144.324C276.233 142.976 276.41 141.644 276.554 140.328C276.602 139.846 276.65 139.397 276.699 138.916C276.763 138.29 276.811 137.664 276.859 137.038C276.875 136.733 276.907 136.428 276.939 136.123C276.956 135.882 276.956 135.626 276.972 135.369C276.972 135.224 276.987 135.08 276.987 134.936C277.004 134.615 277.019 134.278 277.036 133.941C277.068 132.946 277.084 131.967 277.084 130.988V130.828C277.084 130.105 277.068 129.399 277.036 128.693C277.036 128.517 277.036 128.34 277.019 128.163V127.955C277.003 127.682 276.971 127.425 276.955 127.136C276.955 126.783 276.923 126.43 276.891 126.093C276.891 125.917 276.875 125.74 276.859 125.564C276.859 125.419 276.827 125.275 276.827 125.114C276.811 124.954 276.795 124.793 276.779 124.633C276.747 124.408 276.73 124.183 276.698 123.975C276.698 123.83 276.682 123.686 276.65 123.541C276.634 123.333 276.618 123.124 276.586 122.916C276.586 122.819 276.57 122.723 276.538 122.627C276.522 122.482 276.506 122.354 276.49 122.209C276.426 121.84 276.377 121.471 276.329 121.102C276.281 120.845 276.249 120.557 276.201 120.3C276.185 120.252 276.185 120.219 276.169 120.171C276.04 119.449 275.912 118.743 275.751 118.053C275.719 117.908 275.687 117.748 275.655 117.603C275.607 117.395 275.543 117.186 275.495 116.978C275.511 116.961 275.495 116.961 275.495 116.945C275.43 116.705 275.366 116.464 275.302 116.223C275.254 115.966 275.19 115.725 275.109 115.485C275.045 115.244 274.997 115.019 274.933 114.795C274.901 114.698 274.868 114.618 274.837 114.522C274.74 114.153 274.612 113.8 274.483 113.447C274.387 113.158 274.291 112.869 274.195 112.58C274.195 112.532 274.178 112.484 274.146 112.452C274.082 112.259 274.034 112.067 273.97 111.89C273.938 111.81 273.89 111.729 273.858 111.649C273.745 111.312 273.617 111.007 273.472 110.686C273.36 110.349 273.215 110.029 273.071 109.707C272.943 109.419 272.814 109.13 272.686 108.857C272.67 108.825 272.654 108.792 272.654 108.761C272.493 108.424 272.333 108.103 272.156 107.782C271.996 107.461 271.819 107.14 271.659 106.819C271.643 106.819 271.643 106.802 271.627 106.787C271.595 106.722 271.546 106.658 271.514 106.594C271.209 106.048 270.904 105.519 270.567 105.005C270.535 104.957 270.503 104.893 270.471 104.845C269.926 104.01 269.332 103.192 268.722 102.438C268.577 102.245 268.417 102.052 268.272 101.876C267.967 101.507 267.662 101.154 267.341 100.8C266.154 99.4846 264.854 98.3129 263.458 97.302C263.089 97.0291 262.704 96.7564 262.334 96.5156C262.286 96.4673 262.222 96.4353 262.174 96.4032C261.917 96.2268 261.66 96.0662 261.387 95.9056C261.275 95.8253 261.147 95.745 261.034 95.6809L257.616 93.7068L232.756 79.2468V79.263C233.591 79.7445 234.393 80.29 235.18 80.868C235.356 81.0124 235.549 81.1568 235.742 81.3012C236.496 81.895 237.25 82.5209 237.956 83.2109C238.004 83.2591 238.053 83.307 238.101 83.3553C238.759 84.0132 239.384 84.7032 239.994 85.4417C240.139 85.6182 240.299 85.8108 240.444 86.0034C241.07 86.7899 241.679 87.6243 242.241 88.491C242.626 89.101 243.011 89.7266 243.365 90.3686C243.365 90.3848 243.365 90.3848 243.381 90.3848C243.67 90.9304 243.942 91.4922 244.231 92.0539C244.279 92.1824 244.343 92.2948 244.408 92.423C244.825 93.3218 245.226 94.2527 245.579 95.2156C245.708 95.5206 245.804 95.8415 245.916 96.1465C246.109 96.7244 246.317 97.302 246.494 97.8958C246.606 98.2649 246.718 98.6502 246.831 99.0514C246.959 99.5329 247.104 100.046 247.216 100.544C247.328 100.977 247.425 101.427 247.521 101.86C247.617 102.293 247.697 102.743 247.778 103.176C247.874 103.673 247.97 104.171 248.05 104.684C248.099 105.069 248.163 105.471 248.227 105.872C248.291 106.417 248.355 106.979 248.42 107.541C248.468 107.91 248.5 108.295 248.548 108.68C248.596 109.339 248.644 110.012 248.677 110.703C248.692 110.975 248.725 111.248 248.741 111.521C248.789 112.516 248.805 113.527 248.805 114.554C248.821 115.533 248.789 116.512 248.757 117.507C248.741 117.844 248.725 118.181 248.709 118.502C248.677 119.208 248.628 119.915 248.58 120.604C248.548 120.958 248.532 121.311 248.5 121.664C248.436 122.418 248.356 123.156 248.275 123.895C248.243 124.2 248.211 124.489 248.179 124.777C248.051 125.821 247.906 126.848 247.73 127.891C247.714 128.019 247.698 128.148 247.666 128.276C247.521 129.19 247.361 130.105 247.184 131.036C247.104 131.405 247.04 131.774 246.96 132.143C246.815 132.834 246.671 133.54 246.51 134.246L246.221 135.449C246.061 136.123 245.9 136.797 245.724 137.487C245.611 137.889 245.515 138.29 245.403 138.691C245.21 139.429 245.002 140.151 244.777 140.874C244.681 141.227 244.584 141.564 244.472 141.901C244.151 142.96 243.83 144.019 243.477 145.078C243.445 145.158 243.413 145.239 243.397 145.303C243.06 146.298 242.707 147.277 242.353 148.24C242.241 148.561 242.113 148.882 242 149.187C241.728 149.925 241.439 150.663 241.15 151.402C241.005 151.755 240.861 152.108 240.716 152.461C240.411 153.215 240.091 153.969 239.769 154.724C239.657 155.013 239.529 155.286 239.416 155.558C238.967 156.586 238.502 157.613 238.02 158.624C237.908 158.865 237.796 159.089 237.683 159.33C237.298 160.132 236.913 160.935 236.512 161.721C236.239 162.267 235.95 162.812 235.661 163.358C235.388 163.888 235.116 164.418 234.843 164.947C234.072 166.375 233.27 167.788 232.451 169.184C232.178 169.666 231.89 170.131 231.617 170.612C231.264 171.174 230.927 171.752 230.574 172.313C230.269 172.827 229.932 173.325 229.611 173.822C229.258 174.384 228.905 174.945 228.536 175.491C228.295 175.844 228.054 176.197 227.813 176.566C226.802 178.059 225.759 179.551 224.7 181.012C224.668 181.044 224.652 181.076 224.62 181.092C223.882 182.103 223.127 183.098 222.357 184.093C221.731 184.88 221.105 185.65 220.479 186.404C220.367 186.548 220.255 186.693 220.142 186.821C219.404 187.72 218.65 188.587 217.895 189.453C217.671 189.694 217.446 189.935 217.238 190.176C216.692 190.786 216.146 191.395 215.585 191.989C215.28 192.326 214.959 192.647 214.654 192.968C214.172 193.466 213.691 193.963 213.209 194.461C212.872 194.798 212.519 195.135 212.182 195.488C211.717 195.937 211.236 196.386 210.77 196.836C210.401 197.189 210.016 197.542 209.647 197.879C209.181 198.312 208.716 198.746 208.234 199.163C207.865 199.483 207.496 199.82 207.111 200.142C206.629 200.559 206.148 200.96 205.666 201.361C205.297 201.666 204.928 201.971 204.559 202.276C204.045 202.677 203.532 203.078 203.018 203.48C202.665 203.736 202.328 204.009 201.975 204.266C201.413 204.683 200.836 205.101 200.258 205.502L199.391 206.128C198.541 206.722 197.674 207.299 196.808 207.845C196.759 207.877 196.711 207.909 196.663 207.941C195.764 208.503 194.866 209.049 193.951 209.578C193.309 209.947 192.667 210.301 192.025 210.654C191.576 210.894 191.126 211.119 190.677 211.344C190.404 211.488 190.115 211.632 189.843 211.777C189.313 212.033 188.799 212.274 188.286 212.499C188.093 212.595 187.885 212.707 187.676 212.788C186.97 213.108 186.248 213.413 185.541 213.702C185.413 213.751 185.285 213.798 185.14 213.847C184.563 214.071 183.985 214.296 183.407 214.505C183.166 214.585 182.91 214.665 182.669 214.745C182.203 214.906 181.754 215.051 181.289 215.195C181.032 215.275 180.775 215.339 180.518 215.42C180.053 215.548 179.604 215.692 179.138 215.805C178.865 215.869 178.592 215.933 178.32 215.998C177.87 216.11 177.437 216.206 177.003 216.303C176.73 216.351 176.458 216.399 176.201 216.447C175.671 216.559 175.142 216.64 174.612 216.72C174.404 216.752 174.195 216.784 173.986 216.8C173.248 216.896 172.51 216.977 171.788 217.025C171.725 217.04 171.661 217.04 171.597 217.04Z" fill="#7A0017"/>
<path d="M221.687 32.1463C158.906 68.3925 108.188 156.252 108.392 228.38C108.597 300.52 159.647 329.612 222.427 293.365C285.197 257.125 335.926 169.271 335.722 97.1315C335.518 25.0035 284.457 -4.09379 221.687 32.1463ZM222.369 272.749C169.507 303.269 126.506 278.764 126.334 218.022C126.162 157.28 168.883 83.2946 221.745 52.7747C274.607 22.2549 317.598 46.7541 317.77 107.496C317.942 168.238 275.231 242.229 222.369 272.749Z" fill="#CA0026"/>
<path d="M221.823 80.2673C182.169 103.162 150.141 158.649 150.27 204.203C150.399 249.768 182.637 268.14 222.291 245.245C261.934 222.357 293.973 166.875 293.844 121.31C293.715 75.756 261.467 57.3788 221.823 80.2673ZM222.236 226.006C191.835 243.558 167.112 229.47 167.013 194.536C166.914 159.614 191.477 117.07 221.878 99.5175C252.269 81.971 276.993 96.0602 277.092 130.982C277.19 165.916 252.628 208.46 222.236 226.006Z" fill="#CA0026"/>
<path d="M221.746 52.7747C168.884 83.2945 126.162 157.28 126.334 218.022C126.506 278.764 169.507 303.269 222.369 272.749C275.231 242.229 317.943 168.238 317.77 107.496C317.598 46.754 274.607 22.2549 221.746 52.7747ZM222.291 245.245C182.637 268.139 150.399 249.768 150.27 204.202C150.141 158.649 182.169 103.162 221.824 80.267C261.467 57.3788 293.716 75.7557 293.845 121.309C293.974 166.875 261.935 222.357 222.291 245.245Z" fill="#E6E7E8"/>
<path d="M80.185 206.82C80.1947 206.497 80.2191 206.17 80.2307 205.846C80.2554 205.155 80.2943 204.461 80.3278 203.768C80.3675 202.952 80.3902 202.141 80.4421 201.323C80.4818 200.698 80.5453 200.068 80.5919 199.442C80.6463 198.709 80.7028 197.976 80.7669 197.242C80.8089 196.758 80.8359 196.279 80.8821 195.795C80.982 194.749 81.1134 193.697 81.2322 192.648C81.3009 192.043 81.3593 191.44 81.4342 190.834C81.4592 190.631 81.4759 190.43 81.5017 190.228C81.7423 188.33 82.0136 186.427 82.3143 184.519C82.3208 184.478 82.3291 184.436 82.3359 184.395C82.3796 184.12 82.434 183.843 82.4788 183.567C82.7384 181.972 83.0066 180.375 83.3073 178.774C83.3612 178.488 83.427 178.2 83.4821 177.914C83.6282 177.154 83.7905 176.393 83.9454 175.632C84.1349 174.703 84.3085 173.775 84.5114 172.845C84.6237 172.329 84.7556 171.813 84.872 171.297C85.0595 170.466 85.2547 169.635 85.453 168.804C85.6051 168.166 85.7407 167.529 85.899 166.89C86.0888 166.124 86.3044 165.358 86.503 164.592C86.7192 163.758 86.9337 162.925 87.1601 162.091C87.2716 161.68 87.3695 161.27 87.4833 160.86C87.7865 159.767 88.1202 158.674 88.4408 157.582C88.6485 156.874 88.8459 156.166 89.0607 155.458C89.1217 155.258 89.175 155.057 89.2363 154.857C89.8372 152.896 90.4653 150.937 91.1204 148.98C91.1281 148.957 91.1369 148.934 91.1446 148.911C91.203 148.737 91.2677 148.563 91.3267 148.389C91.9126 146.653 92.5121 144.919 93.1396 143.187C93.2387 142.914 93.347 142.642 93.4469 142.37C93.6852 141.719 93.9349 141.071 94.1789 140.421C94.5293 139.488 94.8683 138.554 95.2303 137.622C95.4615 137.028 95.7098 136.437 95.9456 135.844C96.2318 135.124 96.5207 134.405 96.814 133.686C97.0299 133.157 97.2336 132.625 97.4529 132.097C97.8862 131.054 98.3427 130.018 98.7901 128.978C99.0355 128.409 99.2732 127.838 99.5229 127.269C99.6123 127.066 99.6957 126.86 99.7856 126.657C100.6 124.815 101.436 122.979 102.294 121.15C102.326 121.081 102.361 121.014 102.393 120.946C102.621 120.461 102.862 119.982 103.093 119.499C103.782 118.056 104.469 116.613 105.184 115.18C105.292 114.963 105.409 114.751 105.517 114.535C106.087 113.399 106.681 112.274 107.268 111.145C107.747 110.223 108.208 109.294 108.698 108.377C108.834 108.121 108.978 107.869 109.115 107.614C109.412 107.062 109.717 106.516 110.017 105.966C110.85 104.444 111.696 102.93 112.557 101.424C112.904 100.817 113.25 100.21 113.602 99.6061C113.837 99.2006 114.065 98.7907 114.302 98.3867C114.735 97.6521 115.191 96.9326 115.63 96.2021C116.339 95.0215 117.049 93.8421 117.775 92.6727C118.425 91.6269 119.088 90.5922 119.751 89.5558C120.491 88.4 121.231 87.2464 121.987 86.1027C122.237 85.7245 122.476 85.337 122.727 84.96C123.33 84.058 123.951 83.1717 124.564 82.278C124.985 81.6638 125.401 81.0453 125.826 80.435C127.17 78.51 128.529 76.6001 129.917 74.7168C129.918 74.7154 129.919 74.7142 129.92 74.7131C129.922 74.7105 129.924 74.7077 129.926 74.7049C129.962 74.6566 129.999 74.6104 130.035 74.5621C131.584 72.4635 133.162 70.3941 134.765 68.3522C134.837 68.2603 134.905 68.1647 134.977 68.0731C136.166 66.5623 137.378 65.0782 138.595 63.6009C138.838 63.307 139.072 63.0034 139.315 62.7106C139.33 62.6925 139.345 62.6737 139.36 62.6556C140.805 60.9178 142.27 59.2039 143.752 57.5159C143.826 57.4322 143.902 57.3521 143.975 57.2687C144.426 56.7575 144.887 56.2624 145.341 55.756C146.282 54.7048 147.219 53.6463 148.174 52.6161C148.353 52.4229 148.538 52.2385 148.718 52.0461C149.363 51.355 150.018 50.6818 150.67 50.0006C151.389 49.2485 152.099 48.4816 152.825 47.7419C153.094 47.4687 153.37 47.2091 153.639 46.9376C154.347 46.2232 155.063 45.5244 155.778 44.8225C156.393 44.2188 156.999 43.5978 157.618 43.0031C157.968 42.6675 158.327 42.35 158.678 42.0175C159.448 41.2886 160.224 40.5722 161 39.8578C161.54 39.3619 162.07 38.8475 162.612 38.3587C163.037 37.9763 163.471 37.6154 163.898 37.2375C164.675 36.5486 165.455 35.8688 166.239 35.1947C166.716 34.7845 167.185 34.3558 167.665 33.9509C168.181 33.5152 168.707 33.1052 169.226 32.6762C169.992 32.043 170.758 31.4137 171.53 30.7949C171.929 30.4746 172.322 30.1376 172.723 29.8212C173.374 29.3071 174.036 28.8228 174.691 28.3195C175.406 27.7705 176.119 27.2187 176.838 26.6825C177.131 26.464 177.419 26.2317 177.712 26.0155C178.595 25.3658 179.488 24.7513 180.377 24.1211C180.98 23.6942 181.578 23.255 182.183 22.8371C182.341 22.7281 182.496 22.6107 182.654 22.5023C184.254 21.4057 185.864 20.3415 187.483 19.3114C187.497 19.3023 187.511 19.2943 187.526 19.2853C187.642 19.2115 187.759 19.1445 187.875 19.0711C189.341 18.1436 190.813 17.2363 192.293 16.3653C192.665 16.1465 193.037 15.9295 193.41 15.7142C194.523 15.0716 195.631 14.455 196.737 13.8536C196.832 13.8017 196.929 13.7444 197.024 13.6927C197.188 13.6039 197.35 13.5267 197.514 13.4388C198.758 12.7715 199.997 12.1292 201.231 11.5132C201.38 11.4389 201.531 11.3544 201.68 11.2806C201.744 11.2485 201.808 11.2213 201.873 11.1895C203.218 10.5265 204.557 9.89891 205.889 9.29687C206.02 9.23786 206.152 9.17006 206.282 9.1119C206.447 9.03785 206.611 8.9757 206.776 8.9025C208.132 8.30245 209.483 7.72255 210.824 7.18548C210.826 7.18492 210.827 7.18407 210.829 7.18321L210.83 7.18293C212.21 6.63054 213.578 6.12269 214.941 5.63641C215.099 5.58023 215.259 5.513 215.416 5.45767C215.532 5.41682 215.646 5.38504 215.762 5.34475C217.088 4.88344 218.406 4.45106 219.715 4.05187C219.799 4.02634 219.884 3.99457 219.967 3.96932C220.111 3.92591 220.252 3.89384 220.396 3.851C221.8 3.43366 223.196 3.04327 224.578 2.69714C224.606 2.69005 224.635 2.68069 224.664 2.67359C224.672 2.67161 224.68 2.6702 224.688 2.66821C226.105 2.31527 227.508 2.01 228.903 1.73139C229.042 1.70359 229.184 1.665 229.323 1.63804C229.403 1.62244 229.481 1.61421 229.561 1.59889C231.03 1.3166 232.485 1.07942 233.927 0.879117C234.05 0.862094 234.176 0.834289 234.298 0.817834C234.397 0.804499 234.491 0.801092 234.589 0.788041C236.079 0.593414 237.553 0.44418 239.011 0.336653C239.124 0.328425 239.242 0.309418 239.355 0.301474C239.536 0.288991 239.714 0.285015 239.894 0.27395C240.373 0.244444 240.848 0.221181 241.323 0.200753C241.718 0.184014 242.112 0.167847 242.504 0.15735C242.98 0.144582 243.453 0.140044 243.925 0.136639C244.181 0.134937 244.44 0.124439 244.695 0.125574C244.811 0.126141 244.924 0.133236 245.039 0.134371C245.731 0.140612 246.417 0.160471 247.1 0.186857C247.33 0.195652 247.562 0.198487 247.79 0.209836C248.696 0.254379 249.594 0.316513 250.484 0.397087C250.518 0.400208 250.554 0.401057 250.588 0.404178C250.705 0.414959 250.819 0.433965 250.936 0.445314C251.791 0.528725 252.639 0.629726 253.48 0.746048C253.759 0.784633 254.038 0.825207 254.316 0.86748C255.15 0.9943 255.977 1.13616 256.796 1.2956C256.909 1.31773 257.026 1.33221 257.139 1.3549C257.166 1.36029 257.191 1.36823 257.217 1.37334C258.443 1.62102 259.648 1.91267 260.839 2.23299C261.022 2.28235 261.207 2.32888 261.389 2.37995C262.539 2.70111 263.67 3.0586 264.785 3.44729C264.883 3.48133 264.986 3.50629 265.083 3.54091C265.244 3.59793 265.401 3.66432 265.561 3.72276C266.015 3.88817 266.465 4.06039 266.912 4.23714C267.218 4.35772 267.523 4.47857 267.826 4.60426C268.284 4.79435 268.736 4.99352 269.187 5.19552C269.47 5.32234 269.755 5.44632 270.035 5.57768C270.523 5.80635 271.005 6.04723 271.486 6.29008C271.72 6.40839 271.957 6.52074 272.189 6.64217C272.896 7.01242 273.597 7.39571 274.287 7.7966L302.564 24.2298C301.874 23.8289 301.174 23.4456 300.466 23.0754C300.234 22.9537 299.997 22.841 299.762 22.7227C299.283 22.4804 298.801 22.2398 298.314 22.0115C298.032 21.8795 297.746 21.7553 297.462 21.6282C297.012 21.4267 296.561 21.2279 296.104 21.038C295.801 20.9121 295.496 20.7915 295.19 20.6706C294.743 20.4939 294.293 20.3217 293.839 20.1563C293.581 20.0624 293.323 19.971 293.063 19.8808C291.948 19.4921 290.817 19.1343 289.667 18.8135C289.484 18.7624 289.3 18.7156 289.116 18.6662C287.925 18.3462 286.721 18.0542 285.495 17.8068C285.356 17.7785 285.213 17.756 285.072 17.7285C284.254 17.5694 283.427 17.4275 282.594 17.3007C282.316 17.2584 282.038 17.2179 281.758 17.1793C280.917 17.0629 280.069 16.9617 279.214 16.8785C279.062 16.8638 278.913 16.8436 278.762 16.8303C277.872 16.7497 276.974 16.6876 276.068 16.643C275.84 16.632 275.608 16.6289 275.378 16.6201C274.695 16.5934 274.009 16.5735 273.317 16.5676C272.947 16.5642 272.575 16.5673 272.203 16.5698C271.731 16.573 271.258 16.5778 270.782 16.5906C270.39 16.6011 269.996 16.6172 269.602 16.634C269.126 16.6544 268.65 16.6774 268.172 16.7072C267.879 16.7253 267.584 16.748 267.289 16.7699C265.831 16.8774 264.357 17.0266 262.867 17.2213C262.647 17.2499 262.426 17.2814 262.205 17.312C260.763 17.5121 259.309 17.7495 257.839 18.0318C257.62 18.0738 257.4 18.1206 257.18 18.1646C255.786 18.4435 254.383 18.7485 252.965 19.1017C252.93 19.1105 252.894 19.121 252.859 19.1298C251.475 19.4759 250.078 19.8666 248.674 20.2842C248.447 20.3517 248.221 20.4156 247.993 20.4848C246.685 20.884 245.367 21.3164 244.041 21.7774C243.767 21.8727 243.493 21.972 243.218 22.0699C241.856 22.5562 240.488 23.064 239.108 23.6161C239.106 23.617 239.104 23.6178 239.102 23.6187C237.762 24.1555 236.411 24.7351 235.056 25.3349C234.759 25.4662 234.463 25.5967 234.166 25.7309C232.834 26.3327 231.496 26.9603 230.151 27.623C229.937 27.728 229.723 27.8395 229.51 27.9459C228.276 28.5613 227.037 29.2039 225.794 29.8709C225.533 30.0107 225.273 30.1452 225.013 30.2874C223.908 30.8885 222.8 31.505 221.688 32.1471C219.831 33.2192 217.987 34.3439 216.152 35.5046C216.036 35.5778 215.919 35.6447 215.803 35.7182C214.011 36.8582 212.232 38.0475 210.463 39.2686C209.856 39.6876 209.255 40.1285 208.651 40.5569C207.468 41.3956 206.287 42.2419 205.116 43.1154C204.397 43.6517 203.684 44.2038 202.969 44.7525C201.911 45.5656 200.856 46.3872 199.808 47.2279C199.037 47.8466 198.27 48.4759 197.504 49.1091C196.503 49.937 195.507 50.7762 194.516 51.6282C193.733 52.3015 192.953 52.981 192.177 53.669C191.205 54.5309 190.239 55.4073 189.277 56.2916C188.501 57.0057 187.726 57.7215 186.957 58.4498C185.982 59.373 185.016 60.313 184.053 61.2586C183.34 61.9588 182.626 62.6562 181.919 63.3683C180.918 64.3774 179.929 65.4076 178.942 66.4403C178.293 67.1187 177.64 67.7894 176.998 68.4774C175.859 69.6976 174.735 70.9423 173.616 72.1923C173.163 72.6979 172.703 73.1918 172.254 73.7022C170.68 75.4888 169.125 77.3017 167.594 79.1441C167.35 79.4369 167.116 79.7402 166.874 80.0344C165.583 81.6014 164.303 83.1811 163.044 84.7855C161.43 86.8415 159.841 88.9248 158.281 91.0382C158.255 91.074 158.227 91.1083 158.201 91.144C158.193 91.1543 158.186 91.1648 158.178 91.175C156.797 93.05 155.442 94.9517 154.105 96.8682C153.68 97.4776 153.265 98.0958 152.844 98.7092C151.974 99.978 151.113 101.254 150.264 102.539C149.51 103.68 148.77 104.831 148.032 105.984C147.368 107.022 146.703 108.059 146.053 109.106C145.327 110.275 144.617 111.455 143.908 112.635C143.228 113.767 142.544 114.897 141.88 116.039C141.529 116.643 141.182 117.249 140.836 117.856C139.974 119.364 139.126 120.88 138.293 122.404C137.994 122.951 137.69 123.496 137.395 124.045C136.764 125.217 136.159 126.4 135.545 127.579C134.959 128.708 134.365 129.833 133.795 130.968C132.968 132.615 132.164 134.271 131.371 135.932C131.141 136.415 130.899 136.894 130.671 137.378C129.684 139.477 128.73 141.586 127.801 143.702C127.552 144.271 127.314 144.842 127.068 145.411C126.394 146.976 125.734 148.545 125.093 150.117C124.799 150.837 124.509 151.559 124.222 152.281C123.618 153.801 123.032 155.324 122.459 156.85C122.214 157.501 121.963 158.151 121.725 158.803C120.988 160.815 120.276 162.829 119.596 164.847C119.54 165.012 119.479 165.176 119.424 165.341C118.692 167.524 118.001 169.709 117.338 171.895C117.124 172.598 116.928 173.3 116.722 174.003C116.28 175.511 115.846 177.02 115.437 178.529C115.211 179.359 114.997 180.189 114.782 181.019C114.418 182.427 114.066 183.833 113.731 185.239C113.533 186.07 113.338 186.9 113.15 187.731C112.823 189.177 112.518 190.622 112.223 192.066C112.068 192.826 111.906 193.588 111.76 194.347C111.396 196.242 111.06 198.133 110.753 200.02C110.71 200.288 110.657 200.557 110.614 200.825C110.273 202.98 109.976 205.126 109.712 207.267C109.638 207.873 109.579 208.475 109.51 209.079C109.336 210.617 109.178 212.151 109.045 213.679C108.981 214.41 108.925 215.14 108.87 215.87C108.762 217.32 108.676 218.764 108.606 220.205C108.572 220.896 108.533 221.589 108.509 222.279C108.435 224.322 108.388 226.36 108.393 228.38C108.399 230.502 108.457 232.58 108.55 234.627C108.576 235.205 108.623 235.766 108.656 236.338C108.737 237.745 108.831 239.141 108.953 240.511C109.024 241.303 109.112 242.079 109.196 242.858C109.321 244.019 109.456 245.171 109.61 246.304C109.724 247.137 109.85 247.958 109.979 248.776C110.145 249.82 110.323 250.852 110.514 251.872C110.685 252.787 110.867 253.692 111.059 254.587C111.255 255.505 111.464 256.41 111.681 257.306C111.936 258.359 112.207 259.395 112.491 260.418C112.787 261.485 113.082 262.553 113.408 263.587C113.487 263.837 113.562 264.091 113.643 264.339C114.119 265.802 114.629 267.228 115.165 268.624C115.305 268.988 115.45 269.346 115.594 269.705C116.085 270.931 116.596 272.132 117.134 273.304C117.239 273.536 117.339 273.774 117.446 274.003C118.135 275.467 118.855 276.894 119.615 278.272C119.618 278.277 119.62 278.282 119.623 278.287C120.383 279.666 121.184 280.995 122.014 282.286C122.18 282.545 122.358 282.789 122.527 283.044C123.16 283.999 123.811 284.931 124.481 285.835C124.751 286.198 125.025 286.555 125.3 286.91C125.937 287.731 126.591 288.528 127.259 289.305C127.513 289.6 127.761 289.904 128.02 290.193C128.939 291.22 129.88 292.215 130.855 293.161C130.989 293.291 131.13 293.409 131.266 293.538C132.118 294.35 132.992 295.13 133.886 295.88C134.209 296.151 134.537 296.412 134.865 296.674C135.628 297.286 136.405 297.874 137.195 298.441C137.522 298.676 137.845 298.915 138.176 299.142C139.278 299.895 140.396 300.621 141.548 301.29L113.27 284.857C112.119 284.188 111.001 283.463 109.899 282.709C109.567 282.482 109.243 282.242 108.916 282.007C108.126 281.441 107.351 280.853 106.589 280.243C106.26 279.979 105.931 279.718 105.608 279.446C104.716 278.698 103.843 277.919 102.992 277.109C102.855 276.979 102.712 276.86 102.577 276.728C101.603 275.782 100.662 274.788 99.7436 273.761C99.484 273.471 99.2346 273.167 98.9796 272.87C98.3126 272.094 97.66 271.299 97.0245 270.479C96.7482 270.123 96.4733 269.766 96.2032 269.401C95.5339 268.499 94.8848 267.569 94.2532 266.616C94.083 266.359 93.904 266.113 93.7363 265.853C93.6872 265.776 93.6336 265.705 93.5845 265.628C92.8077 264.41 92.0612 263.152 91.346 261.856C91.3389 261.843 91.333 261.829 91.3262 261.817C90.6189 260.533 89.9411 259.213 89.2959 257.854C89.2519 257.762 89.2128 257.664 89.1691 257.571C89.0613 257.341 88.9617 257.102 88.8553 256.87C88.3188 255.699 87.8073 254.499 87.3173 253.274C87.1732 252.914 87.0276 252.555 86.8875 252.19C86.7842 251.921 86.6716 251.663 86.5703 251.391C86.1472 250.254 85.7498 249.088 85.3659 247.908C85.2848 247.658 85.2087 247.403 85.1293 247.151C84.9463 246.571 84.7574 245.997 84.5837 245.407C84.4481 244.946 84.3431 244.453 84.2137 243.986C83.9297 242.962 83.6582 241.927 83.4026 240.873C83.2982 240.443 83.1711 240.037 83.0715 239.602C82.9637 239.131 82.8831 238.633 82.781 238.155C82.5892 237.259 82.4068 236.354 82.2354 235.437C82.1472 234.966 82.038 234.517 81.9551 234.041C81.8589 233.488 81.7909 232.908 81.7021 232.348C81.5721 231.527 81.4459 230.704 81.3315 229.869C81.2736 229.444 81.1973 229.037 81.1434 228.609C81.0538 227.897 80.9962 227.155 80.9181 226.432C80.8336 225.65 80.7454 224.871 80.6744 224.076C80.6461 223.758 80.6032 223.455 80.5771 223.135C80.4909 222.08 80.4404 220.993 80.378 219.916C80.3445 219.34 80.2979 218.775 80.2713 218.192C80.2647 218.05 80.2514 217.914 80.2452 217.772C80.1689 215.969 80.1257 214.136 80.1164 212.275C80.1158 212.166 80.1152 212.057 80.115 211.948C80.1104 210.247 80.134 208.537 80.185 206.82Z" fill="#AD0021"/>
<path d="M683.604 472.705V483.193L171.034 187.288V176.8L683.604 472.705Z" fill="#04492C"/>
<path d="M171.034 176.8L227.511 144.194L740.081 440.098L683.604 472.705L171.034 176.8Z" fill="#067A49"/>
<path d="M205.014 196.418L261.49 163.811L233.177 147.465L176.549 180.16L205.014 196.418Z" fill="#04492C"/>
<path opacity="0.25" d="M397.282 287.003C393.733 289.166 389.057 289.34 385.357 287.447C384.392 286.954 383.482 286.32 382.805 285.474C381.992 284.457 381.561 283.196 381.156 281.96C378.855 274.934 376.669 267.398 371.15 262.478C369.228 260.766 366.987 259.459 364.763 258.165C361.485 256.257 358.206 254.349 354.928 252.441C353.627 251.683 352.298 250.904 351.324 249.756C350.671 248.988 347.973 245.294 352.584 242.632C356.8 240.198 360.815 241.487 362.376 242.164C372.884 246.715 376.501 253.748 382.25 263.651C383.509 265.82 384.744 268.031 386.418 269.899C388.134 271.813 390.259 273.308 392.364 274.785C394.332 276.166 396.301 277.548 398.269 278.929C399.595 279.859 402.01 281.522 401.572 283.471C401.225 285.021 398.505 286.257 397.282 287.003Z" fill="black"/>
<path d="M368.622 241.68C368.622 241.68 368.831 244.159 369.788 246.014C370.984 248.333 371.565 250.346 369.752 251.179C367.939 252.013 366.468 252.593 364.293 251.36C362.117 250.127 360.724 250.962 358.911 250.418C357.098 249.874 354.275 247.716 353.4 246.712C351.859 244.943 352.712 243.766 354.162 242.931C355.712 242.038 357.601 241.902 359.091 242.639C360.081 243.127 360.47 243.384 360.47 243.384C360.47 243.384 361.28 242.582 361.907 241.349C362.172 240.828 368.622 239.768 368.622 241.68Z" fill="#2B2A2B"/>
<path d="M353.332 246.049C354.206 247.053 357.098 249.111 358.911 249.655C360.724 250.199 362.117 249.364 364.293 250.597C366.468 251.83 367.939 251.25 369.752 250.417C370.448 250.096 370.79 249.602 370.881 248.983C371.003 249.961 370.715 250.736 369.752 251.179C367.939 252.013 366.468 252.593 364.293 251.36C362.118 250.127 360.724 250.962 358.911 250.418C357.098 249.874 354.275 247.716 353.4 246.712C352.677 245.881 352.481 245.181 352.627 244.586C352.659 245.22 352.897 245.549 353.332 246.049Z" fill="#4D4D4D"/>
<path d="M361.904 241.355C362.043 241.004 362.349 240.671 362.822 240.398C364.156 239.627 366.312 239.627 367.638 240.398C368.096 240.664 368.395 240.987 368.535 241.328C368.584 241.447 368.614 241.569 368.624 241.691C368.624 241.694 368.624 241.697 368.624 241.701C368.664 242.236 368.33 242.779 367.622 243.187C366.288 243.958 364.132 243.958 362.806 243.188C361.95 242.69 361.651 241.994 361.904 241.355Z" fill="white"/>
<path opacity="0.5" d="M353.304 243.54C353.421 244.211 353.99 245.543 355.743 246.065C358.53 246.894 360.47 243.385 360.47 243.385C360.47 243.385 360.47 243.385 360.469 243.384C360.446 243.369 360.051 243.112 359.091 242.639C357.602 241.903 355.712 242.039 354.162 242.931C353.84 243.117 353.548 243.319 353.304 243.54Z" fill="#231F20"/>
<path d="M374.108 190.416C379.368 196.064 379.852 203.92 374.503 207.307C370.92 209.575 359.268 212.144 359.268 212.144C359.268 212.144 363.179 220.417 363.626 222.426C364.872 228.025 367.855 238.66 369.384 243.268C370.006 245.142 360.841 245.104 360.841 242.566C360.841 239.792 350.141 220.154 346.833 210.796C345.435 206.841 348.193 203.377 351.291 200.989C354.389 198.601 358.675 194.673 362.934 192.567C367.194 190.462 372.083 188.241 374.108 190.416Z" fill="#353436"/>
<path d="M350.535 200.338C351.236 203.376 359.16 238.981 364.052 245.297C366.28 248.172 388.635 269.81 389.966 270.972C390.365 271.322 391.063 271.001 391.805 270.343C393.531 268.814 395.498 265.467 394.516 264.518C393.62 263.654 388.737 255.724 382.441 246.871C378.662 241.558 374.504 238.811 374.504 238.811C374.504 238.811 372.331 213.657 371.959 208.042C371.738 204.693 370.869 200.572 367.513 194.799C365.092 190.633 356.433 191.658 352.443 195.226C350.904 196.602 350.076 198.353 350.535 200.338Z" fill="#414042"/>
<path d="M390.959 267.358C389.697 269.92 390.179 270.627 390.508 270.891L390.58 270.931C390.58 270.931 390.443 272.33 391.763 274.93C393.084 277.529 393.636 281.327 392.234 283.453C390.832 285.579 392.375 287.053 394.22 285.715C396.064 284.377 398.741 282.817 399.266 281.136C399.79 279.456 399.68 278.696 399.313 276.409C398.946 274.123 399.697 271.231 400.017 269.898C400.485 267.948 400.501 266.768 398.02 265.953C395.747 265.205 394.952 265.69 393.939 264.985C393.47 264.659 392.055 265.133 390.959 267.358Z" fill="#2B2A2B"/>
<path d="M393.332 283.995C392.819 284.721 392.335 285.413 392.443 286.158C392.907 286.318 393.545 286.204 394.22 285.714C396.063 284.375 398.74 282.816 399.266 281.136C399.792 279.456 399.681 278.696 399.312 276.411C398.947 274.122 399.698 271.233 400.017 269.899C400.444 268.119 400.497 266.981 398.612 266.173C397.13 266.054 395.813 266.524 395.052 268.296C394.16 270.374 394.828 272.175 394.968 273.618C394.995 273.906 395.025 274.192 395.041 274.482C395.158 276.221 395.027 280.398 394.464 282.007C394.191 282.78 393.733 283.426 393.332 283.995Z" fill="#4D4D4D"/>
<path d="M394.905 282.166C394.232 284.071 392.616 285.155 392.94 286.223C393.322 286.205 393.762 286.045 394.22 285.714C396.063 284.375 398.74 282.816 399.266 281.136C399.792 279.456 399.681 278.696 399.312 276.41C398.947 274.122 399.698 271.233 400.017 269.899C400.297 268.739 400.414 267.851 399.943 267.152C399.751 267.047 399.547 266.971 399.332 266.932C398.404 266.759 396.802 266.795 395.979 268.779C394.99 271.169 395.402 272.751 395.512 274.443C395.624 276.136 395.513 280.429 394.905 282.166Z" fill="#666666"/>
<path d="M379.88 188.602C379.88 188.602 381.003 191.243 381.052 191.388C381.052 191.388 381.309 193.165 381.396 193.468C381.396 193.468 381.48 194.785 381.618 195.156C381.756 195.527 382.175 195.699 382.446 195.676C382.717 195.654 382.903 195.434 382.897 195.14C382.891 194.846 382.872 193.408 382.869 193.376C382.867 193.343 382.734 191.129 382.715 190.998C382.696 190.867 382.02 188.709 381.894 188.254C381.647 187.365 379.594 187.928 379.88 188.602Z" fill="#FFD2B3"/>
<path d="M381.737 188.656C381.737 188.656 382.639 191.405 382.699 191.513C382.699 191.513 382.977 193.078 383.118 193.496C383.118 193.496 383.179 194.629 383.457 195.005C383.736 195.38 383.909 195.466 384.147 195.446C384.385 195.426 384.597 195.191 384.575 194.913C384.552 194.635 384.459 193.51 384.459 193.51L384.15 191.252C384.15 191.252 383.482 188.496 383.404 188.167C383.277 187.628 381.47 188.034 381.737 188.656Z" fill="#FFD2B3"/>
<path d="M378.403 188.601C378.403 188.601 378.741 190.895 378.754 191.056C378.754 191.056 378.581 192.728 378.551 192.962C378.551 192.962 378.445 194.232 378.492 194.656C378.539 195.08 378.941 195.363 379.317 195.345C379.694 195.326 379.738 195.031 379.791 194.698C379.845 194.365 380.034 193.27 380.034 193.27C380.034 193.27 380.322 191.416 380.34 191.105C380.34 191.105 380.272 188.748 380.248 188.45C380.199 187.856 378.271 187.698 378.403 188.601Z" fill="#FFD2B3"/>
<path d="M381.386 178.645L382.251 181.121C382.251 181.121 384.071 185.693 384.323 186.211C384.642 186.863 384.905 187.85 384.765 188.258C384.624 188.667 382.017 188.939 381.5 188.982C380.982 189.024 378.97 188.991 378.662 188.868C378.354 188.744 377.889 187.616 377.703 186.862C377.517 186.109 376.983 182.629 376.862 181.151C376.862 181.151 376.668 180.203 376.572 179.835C376.234 178.539 380.947 176.928 381.386 178.645Z" fill="#FFD2B3"/>
<path d="M383.097 188.602C383.097 188.602 383.275 190.363 383.413 191.039C383.413 191.039 383.604 192.555 383.702 192.952C383.702 192.952 383.847 193.858 383.949 194.089C384.051 194.321 384.17 194.518 384.565 194.485C384.959 194.453 384.993 194.21 384.989 194.062C384.985 193.913 384.932 192.718 384.932 192.718C384.932 192.718 384.891 191.018 384.886 190.754C384.881 190.49 384.79 188.33 384.796 188.108C384.801 187.885 383.009 187.796 383.097 188.602Z" fill="#FFD2B3"/>
<path d="M377.073 182.022C377.073 182.022 376.534 183.507 376.301 184.95C376.068 186.393 376.009 187.06 376.009 187.06C376.009 187.06 376.063 190.042 376.118 190.299C376.172 190.555 376.975 192.421 377.011 192.736C377.011 192.736 377.786 193.032 378.129 192.327C378.472 191.621 378.299 190.789 377.915 190.101C377.915 190.101 378.357 187.858 378.363 187.803C378.369 187.748 378.808 187.258 379.615 187.305C380.423 187.351 381.194 185.549 380.377 183.996C379.117 181.601 377.369 181.106 377.073 182.022Z" fill="#FFD2B3"/>
<path d="M347.044 158.331C347.875 160.19 349.231 162.011 350.724 162.574C353.898 163.769 367.916 165.924 367.916 165.924C367.916 165.924 375.55 179.773 376.352 181.637C376.679 182.396 377.674 182.684 378.783 182.661C380.729 182.622 383.025 181.626 382.667 180.547C382.256 179.307 375.709 160.289 373.003 158.123C371.996 157.317 360.083 154.891 357.316 153.431C354.549 151.972 351.973 152.415 350.85 152.441C349.728 152.467 347.916 153.116 346.774 153.654C345.834 154.098 346.106 156.238 347.044 158.331Z" fill="white"/>
<path opacity="0.1" d="M347.044 158.331C347.875 160.19 349.231 162.011 350.724 162.574C353.898 163.769 367.916 165.924 367.916 165.924C367.916 165.924 375.55 179.773 376.352 181.637C376.679 182.396 377.674 182.684 378.783 182.661C376.045 177.442 369.41 164.885 368.703 164.394C367.808 163.773 356.803 162.692 356.33 162.384C355.859 162.075 353.671 159.711 353.671 159.711C351.481 158.137 349.132 157.932 347.044 158.331Z" fill="#231F20"/>
<path d="M338.168 159.465L339.789 157.347L338.617 161.409C338.617 161.409 338.877 171.161 334.393 193.793L331.691 197.817L329.691 197.235C334.443 182.771 337.09 162.355 337.09 162.355L336.384 159.85C336.974 159.819 338.168 159.465 338.168 159.465Z" fill="#48464F"/>
<path d="M338.241 152.737C338.241 152.737 338.955 155.168 340.967 156.353C342.877 157.479 341.933 160.944 339.888 161.919C337.844 162.894 331.919 164.723 331.821 162.969C331.709 160.954 330.848 159.174 329.572 156.635C328.516 154.532 337.266 151.675 338.241 152.737Z" fill="#FFD2B3"/>
<path d="M323.082 142.137C323.082 142.137 322.63 145.604 322.671 146.898C322.712 148.191 322.963 148.858 322.897 150.002C322.831 151.147 324.385 156.554 325.301 157.448C326.218 158.343 336.176 158.458 339.021 153.683C341.867 148.907 342.665 141.624 338.19 137.751C334.113 134.223 331.387 134.431 328.604 135.17C325.51 135.99 323.402 139.211 323.082 142.137Z" fill="#FFD2B3"/>
<path d="M327.412 150.508C327.412 150.508 327.329 152.163 327.224 152.679C327.118 153.195 326.131 152.521 326.181 151.321C326.197 150.91 326.201 150.406 326.198 149.921C326.193 148.957 325.769 148.052 325.069 147.404C324.222 146.622 321.982 145.835 321.742 141.196C321.699 140.357 322.253 139.398 322.909 138.911C322.954 138.878 322.996 138.833 323.034 138.775C323.461 138.114 325.827 133.818 331.965 134.425C338.149 135.036 338.925 138.035 338.925 138.035C338.925 138.035 342.288 139.693 341.854 145.745C341.519 150.418 339.375 154.921 336.246 156.461C334.352 157.392 328.762 156.453 329.424 155.143C329.968 154.064 330.189 153.316 330.178 152.712C330.117 149.56 327.407 149.062 327.412 150.508Z" fill="#414042"/>
<path opacity="0.35" d="M325.067 147.406C325.77 148.052 326.194 148.956 326.2 149.921C326.199 150.407 326.197 150.91 326.182 151.322C326.13 152.523 327.12 153.196 327.224 152.678C327.329 152.163 327.414 150.508 327.414 150.508C327.406 149.062 330.118 149.562 330.178 152.712C330.188 153.318 329.969 154.066 329.423 155.141C328.763 156.454 333.657 157.93 336.245 156.459C340.813 153.863 341.517 150.418 341.852 145.746C341.872 145.463 341.884 145.186 341.887 144.924C338.731 152.056 329.35 147.143 329.35 147.143C321.243 144.923 322.907 138.911 322.907 138.911C322.253 139.4 321.7 140.358 321.74 141.198C321.982 145.836 324.223 146.62 325.067 147.406Z" fill="black"/>
<path d="M328.26 172.79C330.455 176.494 334.188 180.334 334.188 180.334C334.188 180.334 347.031 191.272 347.903 193.694C348.775 196.116 350.345 200.958 350.611 202.273C350.819 203.297 352.68 203.255 355.176 202.752C355.884 202.608 356.642 202.429 357.429 202.225C360.173 201.516 363.828 199.835 367.886 197.445C371.944 195.055 375.613 191.86 375.053 191.012C374.494 190.164 368.212 182.14 368.212 182.14C368.212 182.14 358.384 162.933 355.278 158.478C354.049 156.714 350.843 151.964 348.762 152.873C348.762 152.873 344.406 154.329 339.247 157.308C333.771 160.47 329.426 164.965 327.374 166.837C326.059 168.038 326.835 170.386 328.26 172.79Z" fill="white"/>
<path d="M341.894 155.852C341.894 155.852 340.533 154.976 340.321 154.976C340.108 154.976 339.024 155.235 337.262 156.462C335.5 157.688 331.125 160.158 330.926 161.054C330.696 162.085 331.116 163.606 331.116 163.606C331.116 163.606 334.794 161.735 339.793 158.276C342.122 156.664 341.894 155.852 341.894 155.852Z" fill="#E6E6E6"/>
<path opacity="0.1" d="M326.77 169.259C326.96 170.321 327.524 171.548 328.26 172.79C330.455 176.494 334.188 180.334 334.188 180.334C334.188 180.334 347.031 191.272 347.902 193.694C348.774 196.116 350.345 200.958 350.61 202.274C350.799 203.202 352.344 203.254 354.489 202.88C353.032 199.085 350.594 192.84 350.04 192.087C349.238 190.997 342.451 184.466 340.58 182.302C338.71 180.138 335.571 171.798 335.571 171.798C333.791 168.814 329.73 168.796 326.77 169.259Z" fill="#353436"/>
<path d="M313.377 182.344C313.377 182.344 312.944 181.855 312.84 181.781C312.842 181.522 312.836 181.209 312.836 181.209C312.836 181.209 313.128 181.001 312.928 180.479C312.768 180.06 312.575 180.05 312.575 180.05C312.575 180.05 311.691 180.393 311.574 180.495C311.574 180.495 311.139 181.361 311.098 181.589C311.098 181.589 311.467 183.48 311.575 183.778C311.683 184.075 313.82 182.943 313.377 182.344Z" fill="#F2C1A5"/>
<path d="M313.511 180.62C313.511 180.62 313.078 180.132 312.974 180.057C312.976 179.798 312.969 179.485 312.969 179.485C312.969 179.485 313.262 179.277 313.062 178.755C312.902 178.336 312.709 178.327 312.709 178.327C312.709 178.327 311.825 178.669 311.708 178.771C311.708 178.771 311.273 179.637 311.232 179.865C311.232 179.865 311.623 181.801 311.731 182.099C311.839 182.396 313.953 181.219 313.511 180.62Z" fill="#F2C1A5"/>
<path d="M313.925 178.776C313.925 178.776 313.492 178.288 313.389 178.213C313.391 177.954 313.384 177.641 313.384 177.641C313.384 177.641 313.676 177.433 313.477 176.911C313.317 176.492 313.124 176.482 313.124 176.482C313.124 176.482 312.239 176.825 312.122 176.927C312.122 176.927 311.687 177.793 311.647 178.021C311.647 178.021 312.038 179.957 312.146 180.254C312.254 180.552 314.368 179.375 313.925 178.776Z" fill="#F2C1A5"/>
<path d="M315.024 177.705C315.024 177.705 314.685 177.147 314.596 177.056C314.644 176.801 314.692 176.491 314.692 176.491C314.692 176.491 315.017 176.338 314.913 175.79C314.829 175.349 314.641 175.306 314.641 175.306C314.641 175.306 313.71 175.486 313.577 175.566C313.577 175.566 312.995 176.341 312.915 176.558C312.915 176.558 312.957 178.533 313.011 178.845C313.064 179.156 315.354 178.373 315.024 177.705Z" fill="#FFD2B3"/>
<path d="M318.252 182.991C318.252 182.991 318.854 181.646 318.6 180.39C318.346 179.134 317.478 177.571 317.478 177.571C317.478 177.571 317.066 176.54 316.924 176.228C316.781 175.916 316.325 175.451 316.2 175.326C316.075 175.201 314.905 175.633 315.256 176.689C315.313 177.243 315.45 177.618 315.387 178.112C315.387 178.112 312.663 180.466 314.498 182.991C316.333 185.517 318.173 183.191 318.252 182.991Z" fill="#FFD2B3"/>
<path d="M318.436 183.717C318.436 183.717 318.284 182.842 318.062 182.631C317.839 182.419 315.495 178.601 315.024 177.705C314.74 177.165 313.116 178.445 312.454 179.282C311.793 180.118 311.287 183.429 311.621 183.87C311.621 183.87 313.276 185.483 314.178 186.212C314.178 186.212 315.011 187.015 315.692 187.566C316.373 188.116 319.892 184.967 318.436 183.717Z" fill="#FFD2B3"/>
<path d="M314.375 186.782C315.403 188.268 319.24 192.787 320.191 193.872C321.039 194.839 323.211 198.041 325.349 198.175C327.109 198.285 329.411 197.17 331.068 192.087C332.725 187.004 335.237 176.246 335.691 174.097C336.715 169.252 329.242 165.082 327.375 166.837C326.639 167.53 324.529 170.035 324.494 172.993C324.459 175.95 323.211 187.066 323.211 187.066C323.211 187.066 322.24 186.213 321.157 185.232V185.231C320.13 184.301 319.002 183.256 318.508 182.715C317.129 181.206 313.345 185.293 314.375 186.782Z" fill="white"/>
<path opacity="0.1" d="M321.156 185.232C322.629 187.495 322.962 188.883 322.962 188.883C323.032 187.886 323.211 187.066 323.211 187.066C323.211 187.066 322.239 186.213 321.156 185.232Z" fill="#353436"/>
<path opacity="0.1" d="M314.374 186.782C315.402 188.269 319.24 192.787 320.191 193.872C321.039 194.839 323.211 198.041 325.349 198.174C326.862 198.269 328.775 197.459 330.333 194.002C327.695 198.834 324.422 197.346 323.032 196.081C322.396 195.501 316.279 188.249 314.234 185.822C314.163 186.191 314.197 186.525 314.374 186.782Z" fill="#353436"/>
</svg>
