<svg width="241" height="232" viewBox="0 0 241 232" fill="none" xmlns="http://www.w3.org/2000/svg">
<path d="M144.461 113.402C143.405 113.215 162.626 120.78 162.626 120.78C162.626 120.78 143.536 125.109 143.991 125.116L144.461 113.402Z" fill="black"/>
<path d="M180.025 9.25513H164.969L145.886 222.911H162.513C200.529 222.911 235.269 175.082 240.104 116.083C244.94 57.084 218.041 9.25513 180.025 9.25513Z" fill="#231B22"/>
<path d="M224.171 125.497C232.341 66.7262 208.611 14.8631 171.168 9.65777C133.725 4.45242 96.7482 47.876 88.5779 106.647C80.4075 165.418 104.138 217.281 141.58 222.487C179.023 227.692 216 184.268 224.171 125.497Z" fill="#271D22"/>
<path d="M224.463 82.3316C222.778 69.5633 219.49 57.8711 214.885 47.7555C210.689 38.5194 205.397 30.6022 199.227 24.3911C189.685 14.7827 178.046 9.25439 165.123 9.25439C127.108 9.25439 92.3683 57.0844 87.5333 116.08C86.155 132.923 87.3578 148.856 90.6683 163.021C93.2 173.854 96.9605 183.654 101.749 192.043C112.615 211.125 128.741 222.911 147.611 222.911C185.626 222.911 220.366 175.081 225.206 116.081C226.172 104.284 225.874 92.9383 224.463 82.3316ZM219.663 116.081C219.536 117.637 218.616 118.904 217.612 118.904H216.847C211.84 168.456 182.854 208.529 150.835 210.288L150.733 211.493C150.607 213.049 149.686 214.316 148.683 214.316C147.679 214.316 146.966 213.049 147.093 211.493L147.188 210.324C131.132 209.734 117.412 199.366 108.095 182.911C103.84 175.407 100.506 166.631 98.2828 156.934C95.6694 145.532 94.5967 132.856 95.385 119.478H94.9817C93.9733 119.478 93.2644 118.216 93.3916 116.654C93.5183 115.097 94.4389 113.831 95.4422 113.831H95.83C100.683 63.8283 129.976 23.3416 162.267 21.8622L162.321 21.2416C162.447 19.6899 163.362 18.4233 164.371 18.4233C165.374 18.4233 166.083 19.6899 165.956 21.2416L165.907 21.8622C176.5 22.3483 186.067 27.1005 194.007 35.0438C199.498 40.5355 204.211 47.5583 207.95 55.7605C212.006 64.6449 214.91 74.9155 216.417 86.1166C217.57 94.6855 217.906 103.803 217.312 113.261H218.072C219.076 113.262 219.789 114.524 219.663 116.081Z" fill="#4C3C4A"/>
<path d="M160.649 41.6384L160.678 41.2867C160.806 39.7262 161.722 38.4645 162.728 38.4645C163.731 38.4645 164.443 39.7262 164.315 41.2867L164.286 41.6384C189.196 43.089 206.816 74.419 204.569 113.261H204.979C205.982 113.261 206.694 114.522 206.567 116.083C206.439 117.639 205.519 118.905 204.517 118.905H204.106C200.006 157.553 177.453 188.764 152.455 190.504L152.401 191.169C152.273 192.725 151.353 193.991 150.351 193.991C149.345 193.991 148.633 192.725 148.761 191.169L148.812 190.547C123.836 189.383 106.086 158.238 108.137 119.477H107.892C106.889 119.477 106.177 118.215 106.305 116.655C106.433 115.098 107.352 113.832 108.355 113.832H108.572C112.528 74.7267 135.38 43.1001 160.649 41.6384ZM165.339 28.6367C165.118 30.0395 164.259 31.1251 163.329 31.1251C162.397 31.1251 161.719 30.0395 161.727 28.6367C131.833 30.1006 104.74 67.5728 100.195 113.85C101.089 114.01 101.694 115.206 101.576 116.653C101.458 118.092 100.669 119.278 99.7589 119.453C97.1194 165.396 118.148 202.373 147.747 203.545C147.887 202.008 148.799 200.764 149.796 200.764C150.781 200.764 151.486 201.988 151.388 203.508C181.006 201.755 207.787 164.718 212.483 118.905C211.499 118.876 210.804 117.621 210.931 116.083C211.057 114.541 211.957 113.29 212.946 113.261C215.772 67.2528 194.871 30.0901 165.339 28.6367Z" fill="#271D22"/>
<path d="M99.7589 119.453C99.6822 119.468 99.6044 119.476 99.5261 119.476H95.3878C92.455 169.142 115.191 209.146 147.191 210.324L147.743 203.587C147.744 203.573 147.746 203.559 147.747 203.544C118.148 202.373 97.1194 165.395 99.7589 119.453ZM212.484 118.904C207.788 164.718 181.006 201.754 151.389 203.508C151.387 203.534 151.386 203.56 151.383 203.586L150.834 210.289C182.857 208.53 211.843 168.455 216.85 118.905H212.519C212.507 118.905 212.495 118.905 212.484 118.904ZM162.27 21.8616C129.975 23.3394 100.686 63.8299 95.8289 113.83H99.9889C100.059 113.83 100.128 113.837 100.195 113.849C104.74 67.5721 131.833 30.1005 161.727 28.636C161.728 28.5266 161.733 28.4149 161.742 28.3016L162.27 21.8616ZM165.907 21.8616L165.379 28.3027C165.37 28.4155 165.357 28.5271 165.339 28.6366C194.871 30.0899 215.772 67.2527 212.947 113.261C212.958 113.26 212.97 113.26 212.982 113.26H217.313C220.441 63.5221 197.837 23.3288 165.907 21.8616Z" fill="white"/>
<path d="M159.027 61.4277L159.082 60.7627C159.209 59.2021 160.126 57.9405 161.132 57.9405C162.134 57.9405 162.847 59.2021 162.719 60.7627L162.664 61.4271C180.549 62.851 193.188 85.3232 191.818 113.26H192.249H192.976C193.978 113.26 194.691 114.522 194.563 116.082C194.435 117.638 193.516 118.904 192.513 118.904H191.786H191.355C188.168 146.649 172.046 169.007 154.078 170.709L154.021 171.407C153.893 172.967 152.973 174.229 151.971 174.229C150.965 174.229 150.252 172.967 150.381 171.407L150.433 170.767C132.48 169.627 119.712 147.333 120.891 119.475H120.442C119.439 119.475 118.727 118.213 118.854 116.653C118.982 115.097 119.902 113.83 120.904 113.83H121.316C124.366 85.6321 140.787 62.8666 159.027 61.4277ZM163.731 48.421L163.714 48.626C163.586 50.1821 162.667 51.4482 161.664 51.4482C160.658 51.4482 159.949 50.1821 160.077 48.626L160.093 48.4216C137.234 49.876 116.587 78.4671 112.939 113.832H113.084C114.09 113.832 114.799 115.098 114.672 116.654C114.544 118.214 113.627 119.476 112.622 119.476H112.506C110.753 154.51 126.803 182.625 149.381 183.771C149.603 182.374 150.461 181.288 151.392 181.288C152.311 181.288 152.985 182.35 152.994 183.724C175.597 182.01 195.959 153.817 199.741 118.883C198.861 118.707 198.264 117.518 198.382 116.083C198.499 114.643 199.291 113.458 200.201 113.283C202.152 78.1694 186.237 49.8644 163.731 48.421Z" fill="#271D22"/>
<path d="M112.506 119.476H108.137C106.086 158.238 123.836 189.383 148.812 190.546L149.339 184.111C149.348 183.996 149.362 183.882 149.38 183.771C126.803 182.624 110.754 154.51 112.506 119.476ZM199.741 118.883C195.959 153.816 175.597 182.01 152.994 183.724C152.994 183.851 152.99 183.979 152.979 184.111L152.456 190.504C177.453 188.764 200.007 157.553 204.107 118.905H199.969C199.891 118.905 199.815 118.898 199.741 118.883ZM160.649 41.6383C135.379 43.0994 112.528 74.7266 108.572 113.831H112.938C116.586 78.4666 137.233 49.8761 160.093 48.4211L160.649 41.6383ZM164.287 41.6383L163.731 48.4211C186.237 49.865 202.152 78.17 200.201 113.283C200.277 113.268 200.354 113.261 200.432 113.261H204.569C206.816 74.4189 189.196 43.0883 164.287 41.6383Z" fill="#CA0026"/>
<path d="M157.406 81.2343C157.573 79.7393 158.466 78.5438 159.443 78.5438C160.417 78.5438 161.117 79.7388 161.039 81.2332C171.903 82.5966 179.569 96.2277 179.055 113.26H179.154C180.157 113.26 180.869 114.522 180.741 116.082C180.613 117.638 179.694 118.904 178.691 118.904H178.593C176.342 135.748 166.638 149.258 155.703 150.88L155.687 151.083C155.559 152.644 154.639 153.905 153.637 153.905C152.631 153.905 151.918 152.644 152.047 151.083L152.056 150.971C141.123 149.877 133.336 136.429 133.669 119.474C132.693 119.433 132.006 118.187 132.132 116.653C132.255 115.153 133.113 113.923 134.073 113.835C136.199 96.5382 146.194 82.6177 157.406 81.2343ZM162.107 68.2104C161.947 69.7204 161.047 70.9243 160.068 70.9243C159.086 70.9243 158.386 69.721 158.473 68.211C142.642 69.636 128.424 89.3699 125.688 113.833C126.665 113.877 127.347 115.125 127.221 116.654C127.097 118.164 126.235 119.395 125.268 119.472C124.38 143.623 135.465 162.894 151.037 163.988C151.328 162.74 152.126 161.812 152.988 161.812C153.833 161.812 154.472 162.709 154.576 163.924C170.176 162.284 184.142 142.903 186.993 118.824C186.223 118.523 185.723 117.408 185.832 116.083C185.941 114.754 186.623 113.642 187.443 113.341C188.546 89.1032 177.603 69.621 162.107 68.2104Z" fill="#271D22"/>
<path d="M125.268 119.472C125.236 119.474 125.203 119.475 125.171 119.475H120.892C119.712 147.334 132.481 169.627 150.433 170.768L150.936 164.634C150.954 164.412 150.989 164.195 151.037 163.987C135.465 162.894 124.38 143.622 125.268 119.472ZM186.994 118.824C184.142 142.903 170.176 162.283 154.576 163.924C154.596 164.151 154.596 164.389 154.576 164.634L154.078 170.71C172.047 169.008 188.169 146.649 191.356 118.905H187.42C187.271 118.905 187.128 118.877 186.994 118.824ZM159.027 61.4277C140.787 62.8666 124.366 85.6321 121.317 113.831H125.634C125.652 113.831 125.67 113.832 125.688 113.832C128.424 89.3694 142.642 69.6355 158.473 68.2105C158.475 68.1743 158.477 68.1377 158.48 68.1016L159.027 61.4277ZM162.664 61.4271L162.117 68.1016C162.114 68.1377 162.111 68.1743 162.107 68.2105C177.602 69.621 188.545 89.1032 187.443 113.341C187.586 113.289 187.733 113.26 187.882 113.26H191.817C193.188 85.3232 180.549 62.851 162.664 61.4271Z" fill="white"/>
<path d="M155.757 101.331L155.866 99.9949C155.994 98.4388 156.911 97.1727 157.916 97.1727C158.919 97.1727 159.631 98.4388 159.503 99.9949L159.394 101.329C163.306 102.511 166.028 107.53 166.122 113.831H166.557C167.56 113.831 168.272 115.097 168.144 116.653C168.017 118.214 167.097 119.476 166.094 119.476H165.519C164.189 125.235 160.829 129.726 156.975 130.835L156.912 131.608C156.784 133.168 155.864 134.434 154.861 134.434C153.856 134.434 153.146 133.168 153.274 131.608L153.338 130.834C149.668 129.722 147.047 125.232 146.662 119.476H145.724C144.718 119.476 144.006 118.214 144.134 116.653C144.262 115.097 145.181 113.831 146.187 113.831H146.984C148.112 107.533 151.653 102.515 155.757 101.331ZM160.483 88.0388L160.474 88.1444C160.347 89.7005 159.427 90.9666 158.424 90.9666C157.419 90.9666 156.709 89.7005 156.837 88.1444L156.846 88.0399C148.048 89.3888 140.252 100.276 138.447 113.832H138.548C139.551 113.832 140.263 115.098 140.135 116.654C140.007 118.214 139.088 119.476 138.085 119.476H138.058C138.001 132.69 144.085 143.119 152.612 144.182L152.624 144.03C152.752 142.47 153.671 141.208 154.677 141.208C155.679 141.208 156.392 142.47 156.264 144.03L156.261 144.068C164.783 142.499 172.29 132.009 174.207 118.905H174.142C173.137 118.905 172.427 117.639 172.555 116.083C172.683 114.523 173.599 113.261 174.605 113.261H174.67C174.904 99.9671 168.943 89.3638 160.483 88.0388Z" fill="#271D22"/>
<path d="M133.668 119.475C133.334 136.43 141.122 149.878 152.055 150.972L152.612 144.182C144.085 143.119 138.001 132.69 138.058 119.476H133.718C133.702 119.476 133.685 119.476 133.668 119.475ZM178.592 118.905H174.208C172.291 132.009 164.784 142.498 156.262 144.068L155.703 150.881C166.638 149.258 176.341 135.748 178.592 118.905ZM157.406 81.2344C146.193 82.6178 136.199 96.5383 134.071 113.836C134.107 113.833 134.144 113.831 134.181 113.831H138.447C140.252 100.276 148.048 89.3889 156.846 88.0394L157.392 81.3667C157.397 81.3222 157.401 81.2783 157.406 81.2344ZM161.039 81.2339C161.037 81.2783 161.034 81.3222 161.03 81.3667L160.483 88.0389C168.943 89.3644 174.904 99.9678 174.671 113.261H179.055C179.569 96.2283 171.903 82.5972 161.039 81.2339Z" fill="#CA0026"/>
<path d="M160.611 119.457C159.916 121.224 158.834 122.619 157.589 123.334C157.588 123.364 157.586 123.395 157.583 123.427L156.976 130.836C160.83 129.727 164.19 125.235 165.519 119.476H160.82C160.748 119.476 160.679 119.469 160.611 119.457ZM151.55 119.348C151.372 119.431 151.186 119.475 150.997 119.475H146.662C147.047 125.232 149.668 129.722 153.338 130.834L153.946 123.426C153.948 123.394 153.951 123.362 153.954 123.33C152.806 122.6 151.943 121.164 151.55 119.348ZM155.757 101.331C151.654 102.515 148.112 107.533 146.986 113.83H151.46C151.558 113.83 151.652 113.843 151.744 113.865C152.381 111.534 153.666 109.66 155.189 108.805C155.176 108.604 155.178 108.395 155.196 108.181L155.757 101.331ZM159.394 101.329L158.832 108.182C158.815 108.395 158.782 108.602 158.737 108.802C160.117 109.651 161.093 111.512 161.354 113.831H166.122C166.028 107.53 163.306 102.511 159.394 101.329Z" fill="#CA0026"/>
<path d="M158.737 108.802C158.452 110.063 157.648 111.004 156.782 111.004C155.915 111.004 155.268 110.065 155.188 108.805C153.666 109.661 152.381 111.534 151.743 113.866C152.595 114.079 153.162 115.248 153.047 116.653C152.943 117.92 152.319 118.99 151.55 119.348C151.943 121.163 152.806 122.599 153.954 123.33C154.111 121.814 155.011 120.603 155.996 120.603C156.978 120.603 157.682 121.816 157.589 123.333C158.834 122.618 159.917 121.223 160.611 119.457C159.718 119.295 159.114 118.103 159.233 116.653C159.361 115.097 160.277 113.831 161.283 113.831H161.354C161.093 111.513 160.117 109.651 158.737 108.802Z" fill="white"/>
<path d="M192.976 113.26H192.249C193.252 113.26 193.964 114.522 193.837 116.083C193.709 117.639 192.789 118.905 191.787 118.905H192.513C193.516 118.905 194.436 117.639 194.563 116.083C194.691 114.522 193.979 113.26 192.976 113.26Z" fill="#CA0026"/>
<path d="M218.075 113.26H217.312H212.981C212.969 113.26 212.958 113.261 212.946 113.261C211.957 113.29 211.057 114.54 210.931 116.083C210.804 117.621 211.499 118.875 212.483 118.904C212.495 118.904 212.506 118.905 212.518 118.905H216.849H217.612C218.614 118.905 219.534 117.639 219.662 116.083C219.79 114.522 219.078 113.26 218.075 113.26Z" fill="#CA0026"/>
<path d="M204.979 113.26H204.569H200.431C200.353 113.26 200.276 113.268 200.2 113.283C199.291 113.458 198.499 114.643 198.381 116.083C198.263 117.518 198.861 118.707 199.741 118.883C199.814 118.898 199.891 118.905 199.968 118.905H204.106H204.517C205.519 118.905 206.439 117.639 206.567 116.083C206.695 114.522 205.982 113.26 204.979 113.26Z" fill="#CA0026"/>
<path d="M192.249 113.26H191.818H187.882C187.733 113.26 187.587 113.289 187.444 113.341C186.624 113.642 185.942 114.754 185.833 116.083C185.724 117.408 186.224 118.523 186.994 118.824C187.129 118.877 187.271 118.905 187.42 118.905H191.356H191.787C192.789 118.905 193.709 117.639 193.837 116.083C193.964 114.522 193.252 113.26 192.249 113.26Z" fill="#CA0026"/>
<path d="M179.154 113.26H179.055H174.671H174.606C173.6 113.26 172.683 114.522 172.556 116.083C172.428 117.639 173.137 118.905 174.143 118.905H174.207H178.592H178.69C179.693 118.905 180.612 117.639 180.74 116.083C180.869 114.522 180.157 113.26 179.154 113.26Z" fill="#CA0026"/>
<path d="M99.9889 113.831H95.8289H95.4439C94.4383 113.831 93.5189 115.097 93.3911 116.653C93.2633 118.214 93.9756 119.476 94.9811 119.476H95.3878H99.5261C99.6044 119.476 99.6822 119.468 99.7589 119.453C100.669 119.277 101.458 118.092 101.576 116.653C101.695 115.205 101.089 114.009 100.195 113.849C100.128 113.837 100.059 113.831 99.9889 113.831Z" fill="#CA0026"/>
<path d="M113.084 113.831H112.939H108.573H108.356C107.353 113.831 106.433 115.097 106.306 116.653C106.178 118.214 106.89 119.476 107.893 119.476H108.137H112.507H112.622C113.628 119.476 114.544 118.214 114.672 116.653C114.799 115.097 114.09 113.831 113.084 113.831Z" fill="#CA0026"/>
<path d="M125.634 113.831H121.317H120.905C119.902 113.831 118.983 115.097 118.855 116.653C118.727 118.214 119.439 119.476 120.442 119.476H120.892H125.171C125.203 119.476 125.236 119.474 125.268 119.472C126.235 119.394 127.097 118.163 127.221 116.653C127.346 115.125 126.664 113.877 125.688 113.832C125.669 113.832 125.652 113.831 125.634 113.831Z" fill="#CA0026"/>
<path d="M138.548 113.831H138.448H134.181C134.144 113.831 134.108 113.833 134.072 113.836C133.112 113.924 132.254 115.154 132.131 116.653C132.006 118.188 132.692 119.433 133.668 119.474C133.685 119.475 133.702 119.476 133.718 119.476H138.058H138.086C139.088 119.476 140.008 118.214 140.136 116.653C140.263 115.097 139.551 113.831 138.548 113.831Z" fill="#CA0026"/>
<path d="M151.459 113.831H146.985H146.187C145.182 113.831 144.262 115.097 144.134 116.653C144.007 118.214 144.719 119.476 145.724 119.476H146.662H150.997C151.186 119.476 151.372 119.431 151.55 119.348C152.319 118.991 152.943 117.921 153.047 116.653C153.162 115.248 152.595 114.079 151.743 113.866C151.652 113.843 151.557 113.831 151.459 113.831Z" fill="#CA0026"/>
<path d="M166.557 113.831H166.122H161.354H161.283C160.277 113.831 159.361 115.097 159.233 116.653C159.114 118.103 159.718 119.295 160.611 119.457C160.679 119.469 160.748 119.476 160.82 119.476H165.519H166.095C167.098 119.476 168.017 118.214 168.145 116.653C168.272 115.097 167.56 113.831 166.557 113.831Z" fill="#CA0026"/>
<path d="M149.796 200.764C148.799 200.764 147.888 202.008 147.747 203.544C147.746 203.558 147.744 203.572 147.743 203.587L147.191 210.324L147.096 211.492C146.968 213.048 147.68 214.314 148.686 214.314C149.688 214.314 150.608 213.048 150.736 211.492L150.834 210.29L151.383 203.587C151.386 203.56 151.387 203.534 151.389 203.508C151.487 201.988 150.782 200.764 149.796 200.764Z" fill="#CA0026"/>
<path d="M151.392 181.288C150.461 181.288 149.603 182.374 149.381 183.77C149.363 183.882 149.349 183.995 149.339 184.11L148.812 190.545L148.761 191.168C148.634 192.724 149.346 193.99 150.351 193.99C151.354 193.99 152.273 192.723 152.401 191.168L152.456 190.503L152.979 184.109C152.99 183.978 152.995 183.849 152.994 183.723C152.985 182.35 152.311 181.288 151.392 181.288Z" fill="#CA0026"/>
<path d="M152.988 161.812C152.126 161.812 151.327 162.74 151.037 163.988C150.988 164.196 150.954 164.412 150.936 164.635L150.433 170.769L150.381 171.408C150.253 172.969 150.965 174.231 151.971 174.231C152.973 174.231 153.893 172.969 154.021 171.408L154.078 170.711L154.576 164.636C154.596 164.39 154.595 164.152 154.576 163.926C154.473 162.708 153.833 161.812 152.988 161.812Z" fill="#CA0026"/>
<path d="M154.677 141.208C153.672 141.208 152.752 142.469 152.624 144.03L152.612 144.181L152.056 150.972L152.046 151.084C151.918 152.645 152.631 153.907 153.636 153.907C154.639 153.907 155.558 152.645 155.686 151.084L155.703 150.881L156.261 144.068L156.264 144.031C156.393 142.47 155.68 141.208 154.677 141.208Z" fill="#CA0026"/>
<path d="M164.371 18.4221C163.365 18.4221 162.448 19.6882 162.321 21.2443L162.27 21.8621L161.742 28.3027C161.733 28.416 161.728 28.5271 161.728 28.6371C161.719 30.0399 162.397 31.1255 163.33 31.1255C164.26 31.1255 165.118 30.0399 165.34 28.6371C165.357 28.5277 165.371 28.416 165.38 28.3032L165.908 21.8621L165.958 21.2449C166.086 19.6882 165.373 18.4221 164.371 18.4221Z" fill="#CA0026"/>
<path d="M162.728 38.4644C161.722 38.4644 160.806 39.726 160.678 41.2866L160.649 41.6383L160.093 48.421L160.076 48.6255C159.948 50.1816 160.658 51.4477 161.663 51.4477C162.666 51.4477 163.586 50.1816 163.713 48.6255L163.73 48.4205L164.286 41.6377L164.315 41.286C164.443 39.726 163.731 38.4644 162.728 38.4644Z" fill="#CA0026"/>
<path d="M161.132 57.9399C160.126 57.9399 159.209 59.2016 159.082 60.7622L159.027 61.4272L158.48 68.1011C158.477 68.1377 158.474 68.1738 158.473 68.21C158.386 69.72 159.086 70.9233 160.068 70.9233C161.047 70.9233 161.947 69.7194 162.107 68.2094C162.111 68.1733 162.114 68.1372 162.118 68.1005L162.665 61.426L162.719 60.7616C162.847 59.2022 162.134 57.9399 161.132 57.9399Z" fill="#CA0026"/>
<path d="M159.443 78.5444C158.466 78.5444 157.573 79.7394 157.406 81.235C157.401 81.2789 157.396 81.3228 157.393 81.3672L156.846 88.04L156.838 88.1444C156.71 89.7005 157.419 90.9666 158.425 90.9666C159.428 90.9666 160.347 89.7005 160.475 88.1444L160.484 88.0389L161.031 81.3666C161.034 81.3222 161.037 81.2778 161.039 81.2339C161.117 79.7394 160.417 78.5444 159.443 78.5444Z" fill="#CA0026"/>
<path d="M157.916 97.1727C156.911 97.1727 155.994 98.4389 155.866 99.995L155.757 101.331L155.195 108.182C155.177 108.396 155.176 108.605 155.188 108.805C155.268 110.065 155.915 111.004 156.782 111.004C157.648 111.004 158.452 110.063 158.737 108.802C158.782 108.603 158.814 108.396 158.832 108.182L159.394 101.33L159.503 99.9955C159.631 98.4394 158.919 97.1727 157.916 97.1727Z" fill="#CA0026"/>
<path d="M155.996 120.604C155.011 120.604 154.112 121.814 153.954 123.331C153.951 123.362 153.948 123.394 153.946 123.427L153.338 130.834L153.275 131.608C153.147 133.169 153.856 134.435 154.862 134.435C155.864 134.435 156.784 133.169 156.912 131.608L156.976 130.836L157.583 123.427C157.586 123.396 157.587 123.365 157.589 123.334C157.682 121.816 156.978 120.604 155.996 120.604Z" fill="#CA0026"/>
<path opacity="0.5" d="M155.643 116.865L108.096 182.911L101.749 192.043C96.9611 183.655 93.2006 173.856 90.6689 163.021L98.2833 156.935L152.031 116.228L155.643 116.865Z" fill="#51244E"/>
<path opacity="0.5" d="M157.087 115.948C157.087 116.683 156.492 117.279 155.757 117.279C155.022 117.279 154.426 116.683 154.426 115.948C154.426 115.213 155.022 114.618 155.757 114.618C156.492 114.618 157.087 115.213 157.087 115.948Z" fill="#51244E"/>
<path opacity="0.3" d="M224.463 82.3318L216.418 86.1174L157.713 113.753L156.783 111.002L194.008 35.0452L199.228 24.3918C205.397 30.603 210.691 38.5202 214.886 47.7563C219.49 57.8713 222.778 69.5635 224.463 82.3318Z" fill="white"/>
<path d="M32.0017 97.2145C34.16 97.5734 35.3644 96.1667 34.6778 94.089L33.1217 89.3795C32.435 87.3018 30.1072 85.309 27.9489 84.9501L7.81555 81.6051C5.65721 81.2468 4.45277 82.6529 5.13943 84.7307L6.69555 89.4395C7.38221 91.5173 9.70999 93.5106 11.8683 93.869L32.0017 97.2145Z" fill="#CA0026"/>
<path d="M32.0127 97.2395C34.1694 97.6095 34.8611 99.3456 33.5494 101.097L30.5639 105.084C29.2527 106.836 26.8094 108.04 25.135 107.759C23.4605 107.478 21.2239 107.104 20.1644 106.928C19.105 106.752 16.4789 106.279 14.3272 105.879L2.80053 103.733C0.649416 103.332 0.100527 101.686 1.58108 100.075L5.28553 96.044C6.76608 94.4329 9.74164 93.4173 11.8983 93.7873L32.0127 97.2395Z" fill="#CA0026"/>
<path d="M150.148 116.515L7.93889 95.0612C7.15223 94.939 6.61389 94.2029 6.73611 93.4162C6.85834 92.6301 7.59445 92.0912 8.38112 92.2135L150.591 113.667C151.378 113.79 151.916 114.526 151.794 115.312C151.671 116.098 150.935 116.637 150.148 116.515Z" fill="#562726"/>
<path d="M6.73553 93.4162C6.85776 92.6301 7.59387 92.0912 8.38054 92.2135L150.591 113.667C151.377 113.79 151.916 114.526 151.793 115.312L6.73553 93.4162Z" fill="#68322F"/>
<path d="M29.7078 100.745L22.0906 107.249L18.2389 106.608C23.06 104.111 29.7078 100.745 29.7078 100.745Z" fill="white"/>
<path d="M155.643 116.865C151.344 117.212 145.137 116.991 145.137 116.991L145.467 114.817L145.886 112.058C145.886 112.058 151.953 113.431 155.936 115.086L156.006 116.068L155.643 116.865Z" fill="#5A4D66"/>
<path d="M156.006 116.068L145.507 114.548L145.885 112.058C145.885 112.058 151.952 113.431 155.936 115.086L156.006 116.068Z" fill="#9480AD"/>
</svg>
