<svg width="368" height="355" viewBox="0 0 368 355" fill="none" xmlns="http://www.w3.org/2000/svg">
<path d="M220.209 173.408C218.591 173.122 248.042 184.714 248.042 184.714C248.042 184.714 218.792 191.347 219.489 191.358L220.209 173.408Z" fill="black"/>
<path d="M274.703 13.8252H251.634L222.393 341.209H247.87C306.122 341.209 359.353 267.92 366.763 177.517C374.172 87.113 332.955 13.8252 274.703 13.8252Z" fill="#C6003D"/>
<path d="M342.348 191.942C354.867 101.888 318.505 22.4182 261.132 14.4421C203.758 6.46596 147.099 73.0036 134.58 163.058C122.06 253.112 158.422 332.582 215.795 340.558C273.169 348.534 329.828 281.996 342.348 191.942Z" fill="#006D66"/>
<path d="M342.796 125.8C340.213 106.235 335.175 88.3189 328.119 72.8189C321.69 58.6665 313.58 46.535 304.127 37.0178C289.505 22.295 271.671 13.824 251.869 13.824C193.619 13.824 140.388 87.1135 132.979 177.512C130.867 203.321 132.71 227.735 137.783 249.439C141.662 266.039 147.424 281.056 154.761 293.909C171.411 323.149 196.121 341.209 225.036 341.209C283.286 341.209 336.517 267.918 343.934 177.513C345.414 159.438 344.957 142.052 342.796 125.8ZM335.44 177.513C335.245 179.898 333.835 181.839 332.298 181.839H331.125C323.453 257.768 279.039 319.172 229.976 321.866L229.82 323.712C229.626 326.098 228.215 328.038 226.678 328.038C225.14 328.038 224.047 326.098 224.242 323.712L224.387 321.921C199.784 321.018 178.761 305.13 164.485 279.916C157.966 268.418 152.856 254.971 149.45 240.113C145.446 222.641 143.802 203.218 145.01 182.718H144.392C142.847 182.718 141.761 180.785 141.956 178.391C142.15 176.006 143.56 174.065 145.098 174.065H145.692C153.129 97.4472 198.014 35.4097 247.492 33.1428L247.575 32.1919C247.769 29.8143 249.171 27.8734 250.717 27.8734C252.254 27.8734 253.341 29.8143 253.146 32.1919L253.071 33.1428C269.302 33.8876 283.961 41.1695 296.127 53.341C304.541 61.7558 311.764 72.5167 317.493 85.0849C323.707 98.6985 328.157 114.436 330.467 131.599C332.233 144.729 332.748 158.7 331.837 173.193H333.002C334.54 173.193 335.634 175.128 335.44 177.513Z" fill="#006D66"/>
<path d="M245.013 63.4456L245.058 62.9067C245.253 60.5155 246.658 58.5822 248.199 58.5822C249.735 58.5822 250.827 60.5155 250.631 62.9067L250.587 63.4456C288.755 65.6682 315.754 113.675 312.312 173.192H312.941C314.477 173.192 315.569 175.125 315.373 177.516C315.177 179.901 313.768 181.841 312.232 181.841H311.603C305.32 241.06 270.762 288.886 232.458 291.551L232.375 292.57C232.179 294.955 230.77 296.895 229.233 296.895C227.693 296.895 226.601 294.954 226.797 292.57L226.875 291.617C188.605 289.834 161.407 242.111 164.549 182.717H164.175C162.638 182.717 161.547 180.783 161.743 178.392C161.938 176.008 163.347 174.068 164.884 174.068H165.217C171.279 114.147 206.294 65.6853 245.013 63.4456ZM252.201 43.5232C251.861 45.6727 250.546 47.3361 249.121 47.3361C247.691 47.3361 246.653 45.6727 246.666 43.5232C200.859 45.7663 159.345 103.185 152.38 174.094C153.751 174.34 154.678 176.173 154.497 178.391C154.316 180.595 153.107 182.412 151.712 182.681C147.668 253.078 179.889 309.738 225.243 311.533C225.459 309.178 226.857 307.272 228.383 307.272C229.893 307.272 230.973 309.148 230.824 311.477C276.206 308.79 317.243 252.039 324.439 181.84C322.931 181.796 321.866 179.873 322.06 177.516C322.254 175.153 323.632 173.237 325.148 173.193C329.478 102.694 297.452 45.7501 252.201 43.5232Z" fill="#006D66"/>
<path d="M151.712 182.681C151.595 182.704 151.475 182.716 151.355 182.716H145.014C140.52 258.819 175.358 320.116 224.391 321.921L225.237 311.598C225.239 311.576 225.242 311.555 225.243 311.533C179.889 309.738 147.668 253.078 151.712 182.681ZM324.44 181.84C317.244 252.04 276.207 308.79 230.824 311.477C230.822 311.517 230.819 311.557 230.816 311.597L229.974 321.868C279.042 319.173 323.458 257.767 331.13 181.841H324.493C324.475 181.841 324.457 181.841 324.44 181.84ZM247.497 33.1418C198.012 35.4062 153.132 97.4496 145.69 174.065H152.065C152.173 174.065 152.277 174.075 152.38 174.093C159.345 103.184 200.86 45.7662 246.666 43.5223C246.667 43.3546 246.674 43.1835 246.688 43.0098L247.497 33.1418ZM253.071 33.1418L252.262 43.0115C252.248 43.1843 252.227 43.3554 252.201 43.5231C297.452 45.75 329.479 102.694 325.149 173.193C325.167 173.192 325.185 173.192 325.203 173.192H331.839C336.632 96.978 301.997 35.3901 253.071 33.1418Z" fill="#D7FFE5"/>
<path d="M242.529 93.7689L242.612 92.7499C242.808 90.3587 244.212 88.4255 245.753 88.4255C247.29 88.4255 248.381 90.3587 248.185 92.7499L248.102 93.768C275.507 95.9499 294.873 130.384 292.773 173.191H293.434H294.547C296.084 173.191 297.175 175.124 296.979 177.516C296.784 179.9 295.375 181.84 293.838 181.84H292.725H292.064C287.181 224.353 262.477 258.612 234.945 261.22L234.857 262.289C234.661 264.68 233.252 266.613 231.716 266.613C230.175 266.613 229.083 264.68 229.279 262.289L229.359 261.309C201.85 259.561 182.286 225.401 184.093 182.714H183.404C181.868 182.714 180.776 180.781 180.972 178.39C181.168 176.005 182.577 174.065 184.113 174.065H184.744C189.418 130.857 214.58 95.9737 242.529 93.7689ZM249.735 73.8389L249.71 74.153C249.514 76.5374 248.105 78.4775 246.569 78.4775C245.028 78.4775 243.941 76.5374 244.137 74.153L244.162 73.8397C209.135 76.0684 177.497 119.878 171.908 174.067H172.131C173.672 174.067 174.759 176.007 174.563 178.391C174.367 180.783 172.962 182.716 171.422 182.716H171.245C168.559 236.399 193.152 279.479 227.747 281.235C228.088 279.095 229.403 277.43 230.83 277.43C232.237 277.43 233.27 279.058 233.284 281.163C267.918 278.536 299.119 235.336 304.914 181.807C303.565 181.538 302.651 179.716 302.831 177.516C303.012 175.311 304.225 173.494 305.618 173.226C308.609 119.422 284.221 76.0505 249.735 73.8389Z" fill="#006D66"/>
<path d="M171.245 182.716H164.549C161.407 242.11 188.605 289.834 226.875 291.616L227.683 281.755C227.698 281.578 227.719 281.405 227.746 281.235C193.152 279.478 168.56 236.398 171.245 182.716ZM304.914 181.807C299.119 235.335 267.918 278.536 233.284 281.163C233.285 281.356 233.278 281.554 233.262 281.755L232.459 291.551C270.763 288.886 305.321 241.06 311.604 181.841H305.263C305.144 181.841 305.027 181.83 304.914 181.807ZM245.013 63.4456C206.293 65.6844 171.278 114.147 165.217 174.066H171.907C177.496 119.877 209.134 76.0682 244.161 73.8387L245.013 63.4456ZM250.588 63.4456L249.735 73.8387C284.221 76.0512 308.609 119.423 305.618 173.226C305.736 173.204 305.854 173.192 305.972 173.192H312.313C315.754 113.675 288.756 65.6674 250.588 63.4456Z" fill="#C6003D"/>
<path d="M240.044 124.118C240.3 121.827 241.668 119.996 243.165 119.996C244.658 119.996 245.73 121.827 245.611 124.117C262.258 126.206 274.005 147.092 273.217 173.191H273.369C274.905 173.191 275.996 175.124 275.801 177.515C275.605 179.9 274.196 181.84 272.659 181.84H272.509C269.059 207.649 254.19 228.35 237.435 230.836L237.41 231.147C237.214 233.538 235.805 235.472 234.269 235.472C232.728 235.472 231.636 233.538 231.832 231.147L231.847 230.975C215.095 229.298 203.161 208.692 203.673 182.712C202.177 182.649 201.124 180.741 201.318 178.39C201.506 176.092 202.821 174.207 204.291 174.073C207.549 147.568 222.864 126.238 240.044 124.118ZM247.248 104.162C247.002 106.476 245.623 108.32 244.123 108.32C242.618 108.32 241.546 106.476 241.679 104.163C217.421 106.346 195.635 136.584 191.443 174.068C192.94 174.137 193.985 176.049 193.792 178.391C193.602 180.706 192.281 182.591 190.799 182.71C189.439 219.715 206.424 249.245 230.285 250.921C230.731 249.009 231.954 247.587 233.275 247.587C234.57 247.587 235.549 248.961 235.707 250.824C259.611 248.31 281.011 218.613 285.381 181.717C284.201 181.255 283.434 179.546 283.601 177.516C283.768 175.48 284.814 173.776 286.07 173.315C287.759 136.176 270.992 106.323 247.248 104.162Z" fill="#006D66"/>
<path d="M190.799 182.709C190.75 182.713 190.7 182.715 190.651 182.715H184.094C182.286 225.402 201.851 259.562 229.36 261.31L230.131 251.911C230.159 251.57 230.211 251.238 230.285 250.92C206.424 249.245 189.439 219.715 190.799 182.709ZM285.382 181.717C281.011 218.613 259.612 248.309 235.708 250.824C235.738 251.171 235.739 251.536 235.708 251.911L234.945 261.221C262.478 258.614 287.182 224.353 292.065 181.841H286.035C285.806 181.841 285.588 181.798 285.382 181.717ZM242.529 93.7687C214.58 95.9735 189.418 130.857 184.745 174.066H191.36C191.388 174.066 191.415 174.067 191.443 174.068C195.635 136.583 217.422 106.345 241.679 104.162C241.682 104.107 241.686 104.05 241.69 103.995L242.529 93.7687ZM248.102 93.7678L247.263 103.995C247.259 104.05 247.253 104.107 247.247 104.162C270.991 106.323 287.758 136.176 286.07 173.315C286.289 173.235 286.515 173.192 286.742 173.192H292.772C294.873 130.384 275.507 95.9496 248.102 93.7678Z" fill="#D7FFE5"/>
<path d="M237.517 154.912L237.685 152.865C237.881 150.481 239.285 148.541 240.826 148.541C242.363 148.541 243.454 150.481 243.258 152.865L243.09 154.91C249.084 156.721 253.255 164.411 253.399 174.066H254.067C255.603 174.066 256.695 176.006 256.499 178.391C256.303 180.782 254.894 182.715 253.358 182.715H252.476C250.439 191.54 245.29 198.422 239.384 200.122L239.287 201.305C239.091 203.696 237.681 205.636 236.145 205.636C234.604 205.636 233.517 203.696 233.714 201.305L233.811 200.119C228.188 198.416 224.171 191.536 223.581 182.715H222.144C220.603 182.715 219.511 180.782 219.708 178.391C219.903 176.006 221.312 174.066 222.853 174.066H224.076C225.803 164.416 231.23 156.727 237.517 154.912ZM244.76 134.545L244.746 134.707C244.55 137.091 243.142 139.031 241.605 139.031C240.064 139.031 238.977 137.091 239.173 134.707L239.186 134.547C225.705 136.614 213.76 153.296 210.994 174.067H211.148C212.685 174.067 213.776 176.007 213.58 178.391C213.384 180.783 211.976 182.716 210.439 182.716H210.397C210.31 202.964 219.633 218.944 232.698 220.572L232.717 220.341C232.913 217.949 234.321 216.016 235.862 216.016C237.399 216.016 238.49 217.949 238.294 220.341L238.289 220.398C251.348 217.994 262.851 201.921 265.788 181.842H265.689C264.148 181.842 263.061 179.902 263.257 177.517C263.453 175.126 264.858 173.193 266.398 173.193H266.498C266.857 152.823 257.722 136.575 244.76 134.545Z" fill="#006D66"/>
<path d="M203.671 182.714C203.16 208.694 215.093 229.3 231.845 230.977L232.698 220.572C219.633 218.944 210.31 202.964 210.397 182.716H203.747C203.722 182.716 203.697 182.715 203.671 182.714ZM272.508 181.841H265.79C262.852 201.92 251.349 217.993 238.291 220.398L237.435 230.837C254.19 228.351 269.058 207.65 272.508 181.841ZM240.044 124.119C222.863 126.238 207.549 147.569 204.288 174.074C204.344 174.069 204.4 174.066 204.456 174.066H210.994C213.76 153.296 225.705 136.614 239.186 134.546L240.023 124.321C240.03 124.253 240.037 124.186 240.044 124.119ZM245.611 124.118C245.608 124.186 245.603 124.253 245.597 124.321L244.76 134.545C257.722 136.576 266.857 152.823 266.499 173.192H273.217C274.005 147.094 262.258 126.207 245.611 124.118Z" fill="#C6003D"/>
<path d="M244.955 182.687C243.891 185.394 242.233 187.532 240.325 188.627C240.323 188.674 240.319 188.721 240.315 188.769L239.385 200.123C245.291 198.423 250.439 191.541 252.476 182.716H245.276C245.166 182.716 245.059 182.705 244.955 182.687ZM231.071 182.52C230.798 182.647 230.514 182.715 230.223 182.715H223.582C224.172 191.536 228.188 198.415 233.811 200.119L234.742 188.768C234.746 188.719 234.75 188.67 234.755 188.621C232.996 187.502 231.674 185.302 231.071 182.52ZM237.517 154.912C231.23 156.727 225.803 164.416 224.077 174.065H230.933C231.083 174.065 231.228 174.084 231.368 174.119C232.345 170.547 234.313 167.675 236.647 166.364C236.627 166.057 236.63 165.737 236.657 165.408L237.517 154.912ZM243.09 154.91L242.23 165.409C242.203 165.736 242.153 166.054 242.084 166.359C244.198 167.661 245.694 170.513 246.094 174.066H253.399C253.255 164.412 249.084 156.72 243.09 154.91Z" fill="#C6003D"/>
<path d="M242.084 166.359C241.647 168.293 240.415 169.734 239.089 169.734C237.76 169.734 236.768 168.295 236.646 166.364C234.313 167.675 232.344 170.547 231.368 174.119C232.673 174.446 233.541 176.237 233.365 178.39C233.205 180.331 232.249 181.971 231.071 182.519C231.674 185.3 232.996 187.502 234.756 188.621C234.996 186.298 236.374 184.443 237.883 184.443C239.389 184.443 240.468 186.3 240.325 188.626C242.233 187.531 243.891 185.393 244.955 182.686C243.587 182.438 242.661 180.611 242.844 178.39C243.039 176.006 244.444 174.066 245.985 174.066H246.094C245.694 170.514 244.199 167.661 242.084 166.359Z" fill="#D7FFE5"/>
<path d="M294.548 173.192H293.435C294.971 173.192 296.063 175.125 295.867 177.516C295.671 179.901 294.262 181.841 292.726 181.841H293.839C295.376 181.841 296.784 179.901 296.98 177.516C297.176 175.125 296.085 173.192 294.548 173.192Z" fill="#C6003D"/>
<path d="M333.007 173.192H331.838H325.202C325.184 173.192 325.166 173.193 325.148 173.193C323.633 173.237 322.254 175.153 322.06 177.516C321.867 179.873 322.931 181.796 324.439 181.84C324.457 181.84 324.474 181.841 324.492 181.841H331.128H332.297C333.834 181.841 335.243 179.901 335.438 177.516C335.635 175.125 334.544 173.192 333.007 173.192Z" fill="#C6003D"/>
<path d="M312.941 173.192H312.312H305.971C305.852 173.192 305.734 173.204 305.617 173.226C304.225 173.494 303.012 175.311 302.83 177.516C302.65 179.716 303.565 181.538 304.913 181.807C305.027 181.83 305.143 181.841 305.262 181.841H311.603H312.232C313.768 181.841 315.177 179.901 315.373 177.516C315.57 175.125 314.477 173.192 312.941 173.192Z" fill="#C6003D"/>
<path d="M293.434 173.192H292.773H286.743C286.515 173.192 286.29 173.235 286.071 173.315C284.816 173.777 283.769 175.48 283.603 177.516C283.436 179.546 284.203 181.255 285.383 181.717C285.589 181.798 285.807 181.841 286.035 181.841H292.065H292.726C294.262 181.841 295.671 179.901 295.867 177.516C296.063 175.125 294.97 173.192 293.434 173.192Z" fill="#C6003D"/>
<path d="M273.368 173.192H273.217H266.499H266.399C264.858 173.192 263.454 175.125 263.258 177.516C263.062 179.901 264.149 181.841 265.69 181.841H265.789H272.507H272.658C274.194 181.841 275.603 179.901 275.799 177.516C275.996 175.125 274.905 173.192 273.368 173.192Z" fill="#C6003D"/>
<path d="M152.065 174.066H145.69H145.1C143.56 174.066 142.151 176.006 141.955 178.391C141.759 180.782 142.85 182.715 144.391 182.715H145.014H151.356C151.476 182.715 151.595 182.703 151.712 182.68C153.107 182.411 154.316 180.595 154.497 178.39C154.679 176.172 153.751 174.338 152.38 174.093C152.277 174.075 152.173 174.066 152.065 174.066Z" fill="#C6003D"/>
<path d="M172.131 174.066H171.908H165.218H164.885C163.348 174.066 161.939 176.006 161.744 178.391C161.548 180.782 162.639 182.715 164.176 182.715H164.55H171.245H171.423C172.963 182.715 174.368 180.782 174.564 178.391C174.758 176.006 173.672 174.066 172.131 174.066Z" fill="#C6003D"/>
<path d="M191.36 174.066H184.745H184.114C182.578 174.066 181.169 176.006 180.973 178.391C180.777 180.782 181.869 182.715 183.405 182.715H184.094H190.651C190.7 182.715 190.75 182.712 190.799 182.709C192.281 182.59 193.602 180.704 193.792 178.391C193.984 176.049 192.939 174.136 191.443 174.068C191.415 174.067 191.387 174.066 191.36 174.066Z" fill="#C6003D"/>
<path d="M211.149 174.066H210.995H204.457C204.401 174.066 204.345 174.069 204.289 174.074C202.819 174.208 201.504 176.093 201.316 178.391C201.123 180.742 202.176 182.65 203.671 182.713C203.697 182.714 203.722 182.715 203.748 182.715H210.398H210.44C211.976 182.715 213.385 180.782 213.581 178.391C213.776 176.006 212.685 174.066 211.149 174.066Z" fill="#C6003D"/>
<path d="M230.932 174.066H224.076H222.854C221.313 174.066 219.903 176.006 219.708 178.391C219.513 180.782 220.604 182.715 222.145 182.715H223.582H230.223C230.513 182.715 230.798 182.647 231.071 182.52C232.249 181.972 233.205 180.332 233.365 178.391C233.541 176.238 232.672 174.447 231.367 174.12C231.228 174.085 231.082 174.066 230.932 174.066Z" fill="#C6003D"/>
<path d="M254.067 174.066H253.399H246.094H245.985C244.444 174.066 243.039 176.006 242.844 178.391C242.661 180.612 243.588 182.438 244.955 182.686C245.059 182.705 245.166 182.715 245.276 182.715H252.477H253.358C254.895 182.715 256.304 180.782 256.5 178.391C256.695 176.006 255.603 174.066 254.067 174.066Z" fill="#C6003D"/>
<path d="M228.384 307.272C226.857 307.272 225.46 309.178 225.244 311.533C225.243 311.554 225.24 311.576 225.238 311.598L224.392 321.921L224.246 323.711C224.05 326.096 225.141 328.036 226.682 328.036C228.219 328.036 229.627 326.096 229.823 323.711L229.974 321.869L230.816 311.598C230.819 311.558 230.822 311.518 230.824 311.478C230.974 309.149 229.894 307.272 228.384 307.272Z" fill="#C6003D"/>
<path d="M230.83 277.429C229.403 277.429 228.088 279.094 227.747 281.234C227.72 281.405 227.699 281.578 227.684 281.754L226.876 291.615L226.798 292.568C226.603 294.953 227.693 296.893 229.234 296.893C230.771 296.893 232.18 294.952 232.375 292.568L232.459 291.55L233.262 281.753C233.278 281.552 233.285 281.355 233.284 281.161C233.27 279.057 232.237 277.429 230.83 277.429Z" fill="#C6003D"/>
<path d="M233.275 247.587C231.954 247.587 230.73 249.009 230.285 250.922C230.211 251.24 230.158 251.571 230.13 251.912L229.359 261.311L229.279 262.291C229.084 264.682 230.175 266.616 231.716 266.616C233.252 266.616 234.661 264.682 234.857 262.291L234.945 261.223L235.707 251.913C235.738 251.537 235.737 251.173 235.707 250.825C235.55 248.96 234.57 247.587 233.275 247.587Z" fill="#C6003D"/>
<path d="M235.863 216.015C234.322 216.015 232.913 217.948 232.718 220.34L232.699 220.571L231.846 230.977L231.831 231.149C231.636 233.54 232.727 235.474 234.268 235.474C235.804 235.474 237.213 233.54 237.409 231.149L237.435 230.838L238.29 220.398L238.295 220.34C238.492 217.949 237.4 216.015 235.863 216.015Z" fill="#C6003D"/>
<path d="M250.716 27.8716C249.175 27.8716 247.771 29.8116 247.575 32.196L247.497 33.1427L246.689 43.0115C246.674 43.1852 246.667 43.3554 246.667 43.5239C246.653 45.6734 247.692 47.3368 249.122 47.3368C250.547 47.3368 251.862 45.6734 252.202 43.5239C252.228 43.3562 252.249 43.1852 252.263 43.0123L253.072 33.1427L253.149 32.1969C253.344 29.8116 252.253 27.8716 250.716 27.8716Z" fill="#C6003D"/>
<path d="M248.199 58.582C246.658 58.582 245.253 60.5153 245.058 62.9065L245.013 63.4454L244.161 73.8386L244.136 74.1518C243.94 76.5363 245.027 78.4763 246.568 78.4763C248.104 78.4763 249.513 76.5363 249.709 74.1518L249.735 73.8377L250.587 63.4445L250.631 62.9057C250.828 60.5153 249.735 58.582 248.199 58.582Z" fill="#C6003D"/>
<path d="M245.753 88.4243C244.212 88.4243 242.808 90.3576 242.612 92.7488L242.529 93.7678L241.69 103.994C241.686 104.05 241.682 104.106 241.679 104.161C241.546 106.475 242.618 108.319 244.123 108.319C245.624 108.319 247.002 106.474 247.248 104.16C247.254 104.105 247.259 104.049 247.264 103.993L248.103 93.7661L248.186 92.7479C248.381 90.3584 247.29 88.4243 245.753 88.4243Z" fill="#C6003D"/>
<path d="M243.165 119.996C241.668 119.996 240.3 121.827 240.044 124.119C240.036 124.186 240.029 124.254 240.024 124.322L239.186 134.546L239.174 134.706C238.978 137.091 240.065 139.031 241.606 139.031C243.142 139.031 244.551 137.091 244.747 134.706L244.761 134.545L245.598 124.321C245.604 124.253 245.608 124.185 245.612 124.117C245.73 121.827 244.658 119.996 243.165 119.996Z" fill="#C6003D"/>
<path d="M240.826 148.541C239.285 148.541 237.881 150.481 237.685 152.865L237.517 154.912L236.657 165.409C236.629 165.738 236.627 166.058 236.646 166.365C236.768 168.295 237.76 169.735 239.089 169.735C240.416 169.735 241.647 168.293 242.084 166.36C242.153 166.055 242.203 165.737 242.23 165.41L243.09 154.911L243.258 152.866C243.453 150.481 242.363 148.541 240.826 148.541Z" fill="#C6003D"/>
<path d="M237.883 184.444C236.374 184.444 234.996 186.299 234.756 188.622C234.75 188.671 234.745 188.72 234.742 188.769L233.812 200.12L233.714 201.306C233.519 203.697 234.605 205.637 236.146 205.637C237.682 205.637 239.091 203.697 239.288 201.306L239.385 200.123L240.315 188.769C240.319 188.722 240.322 188.675 240.325 188.627C240.468 186.301 239.389 184.444 237.883 184.444Z" fill="#C6003D"/>
<path opacity="0.5" d="M237.343 178.714L164.486 279.916L154.762 293.91C147.425 281.057 141.663 266.041 137.784 249.44L149.451 240.113L231.809 177.739L237.343 178.714Z" fill="#51244E"/>
<path opacity="0.5" d="M239.556 177.31C239.556 178.437 238.643 179.349 237.517 179.349C236.391 179.349 235.478 178.437 235.478 177.31C235.478 176.184 236.391 175.272 237.517 175.272C238.643 175.272 239.556 176.184 239.556 177.31Z" fill="#51244E"/>
<path opacity="0.3" d="M342.796 125.8L330.468 131.601L240.515 173.947L239.09 169.732L296.129 53.3431L304.128 37.019C313.581 46.5363 321.692 58.6678 328.121 72.8202C335.175 88.3194 340.213 106.235 342.796 125.8Z" fill="white"/>
<path d="M47.8883 148.605C51.1955 149.154 53.041 146.999 51.9888 143.815L49.6044 136.599C48.5523 133.415 44.9854 130.362 41.6782 129.812L10.8281 124.686C7.52086 124.137 5.67529 126.292 6.72747 129.476L9.11189 136.691C10.1641 139.875 13.7309 142.929 17.0381 143.478L47.8883 148.605Z" fill="#C6003D"/>
<path d="M47.9053 148.643C51.2099 149.21 52.2698 151.87 50.2599 154.554L45.6852 160.664C43.6761 163.348 39.9322 165.192 37.3665 164.762C34.8008 164.332 31.3735 163.759 29.7502 163.488C28.1268 163.218 24.1028 162.495 20.8058 161.881L3.1436 158.593C-0.152534 157.979 -0.993592 155.457 1.27505 152.988L6.95134 146.811C9.21999 144.342 13.7794 142.786 17.0841 143.353L47.9053 148.643Z" fill="#C6003D"/>
<path d="M228.924 178.178L11.0171 145.305C9.8117 145.118 8.98682 143.99 9.1741 142.785C9.36138 141.58 10.4893 140.754 11.6947 140.942L229.602 173.815C230.807 174.002 231.632 175.13 231.445 176.336C231.257 177.54 230.129 178.365 228.924 178.178Z" fill="#562726"/>
<path d="M9.17291 142.785C9.36019 141.58 10.4881 140.754 11.6935 140.942L229.601 173.815C230.806 174.002 231.631 175.13 231.444 176.336L9.17291 142.785Z" fill="#68322F"/>
<path d="M44.3734 154.014L32.7016 163.98L26.7997 162.998C34.187 159.171 44.3734 154.014 44.3734 154.014Z" fill="white"/>
<path d="M237.343 178.714C230.756 179.247 221.245 178.908 221.245 178.908L221.75 175.577L222.392 171.35C222.392 171.35 231.688 173.453 237.792 175.989L237.899 177.493L237.343 178.714Z" fill="#5A4D66"/>
<path d="M237.899 177.493L221.812 175.165L222.391 171.35C222.391 171.35 231.688 173.453 237.791 175.989L237.899 177.493Z" fill="#9480AD"/>
</svg>
