<svg width="1440" height="562" viewBox="0 0 1440 562" fill="none" xmlns="http://www.w3.org/2000/svg">
<path opacity="0.71" d="M0.37518 264.876C225.859 363.784 452.319 458.526 678.538 417.935C918.776 374.08 1165.57 207.34 1439.86 95.4947M1439.86 107.967C1194.66 209.884 956.133 360.234 712.195 406.476C474.389 451.112 234.992 363.266 0.37518 263.878M0.37518 265.949C216.689 364.444 430.233 466.316 644.889 429.597C881.637 388.331 1136.71 204.736 1439.86 82.9924M0.37518 267.105C207.496 365.285 408.126 474.256 611.232 441.462C730.071 421.913 854.764 363.529 992.611 292.342C1127.34 222.731 1276.4 136.364 1439.85 70.6327M0.37518 268.366C198.243 366.358 385.995 482.556 577.582 453.551C693.449 435.548 817.699 375.513 959.195 300.319C1100.61 225.103 1260.92 129.61 1439.86 58.1454M0.37518 269.724C188.96 367.588 363.835 491.028 543.925 465.873C656.836 449.664 780.613 387.61 925.755 308.401C1073.88 227.467 1245.45 122.811 1439.86 45.6506M0.37518 271.217C179.61 369.127 341.637 499.936 510.268 478.451C620.214 464.042 743.504 399.872 892.323 316.604C1047.16 229.913 1230 116.064 1439.85 33.1708M0.37518 272.868C170.199 370.973 319.401 508.971 476.618 491.283C583.608 478.706 706.395 412.352 858.898 324.919C1020.43 232.262 1214.57 109.168 1439.86 20.646M0.37518 274.692C160.721 373.149 297.121 518.374 442.961 504.393C546.987 493.79 669.225 424.937 825.466 333.346C993.677 234.641 1199.17 102.459 1439.86 8.18876M0.37518 276.763C151.138 375.858 274.773 528.445 409.311 517.804C510.373 509.354 632.071 437.867 792.035 341.916C885.457 285.881 991.013 221.508 1110.44 155.387C1212.92 98.594 1324.59 41.8684 1439.85 -3.92331M1439.86 -28.8378C1310.71 22.1994 1185.87 86.1517 1072.21 150.187C940.246 224.577 825.294 296.897 725.178 359.461C557.658 464.327 437.115 541.697 342.004 545.592C229.852 549.547 131.589 383.062 0.37518 281.873M0.37518 279.142C141.435 379.138 252.357 538.681 375.654 531.522C473.751 525.218 594.879 450.97 758.61 350.614C855.409 291.464 965.611 222.934 1091.33 152.791C1199.39 92.3504 1317.66 32.1052 1439.86 -16.328M1439.86 -41.2651C1303.77 12.3762 1172.3 79.7655 1053.1 147.568C914.836 226.078 795.164 302.383 691.753 368.451C520.399 477.88 400.479 558.485 308.347 560.016C207.241 560.826 121.578 387.798 0.37518 285.063M1439.86 -153.283C1241.21 -76.6332 1050.13 22.1919 881.036 123.464C685.697 240.629 523.505 356.242 390.888 457.566C341.659 495.178 297.248 530.328 257.137 562.064M189.043 562.064C131.897 505.534 77.993 376.406 0.37518 293.565M1439.86 -66.2396C1289.86 -7.46537 1145.19 67.0606 1014.86 142.292C864.024 229.193 734.934 313.82 624.897 386.912C528.811 450.789 449.092 505.039 381.95 542.223C368.66 549.57 355.948 556.218 343.776 562.057M233.716 562.064C160.871 519.049 94.1274 377.382 0.37518 288.89M1439.86 -53.6848C1296.82 2.57549 1158.77 73.5069 1033.98 144.934C889.441 227.699 765.064 308.094 658.321 377.599C564.629 438.647 486.074 490.683 419.179 526.539C391.113 541.615 365.388 553.735 341.682 562.064M152.354 562.064C107.703 498.105 64.6126 378.357 0.37518 299.336M1439.86 -78.6294C1282.93 -17.206 1131.68 60.9145 995.741 139.643C838.607 230.896 704.766 319.56 591.465 396.398C492.97 463.134 412.103 519.777 344.714 558.342C342.507 559.603 340.316 560.841 338.14 562.064M120.205 562.064C86.1802 494.007 52.6056 382.845 0.37518 306.833M1439.86 -91.0566C1275.98 -27.0818 1118.08 54.4307 976.627 136.979C813.129 232.39 674.628 325.511 558.033 406.063C467.463 468.762 392.089 522.749 328.692 562.057M91.2232 562.064C66.4587 492.491 41.4091 390.132 0.367676 316.896M1439.86 -103.484C1269.03 -36.9275 1104.52 48.1121 957.499 134.3C787.697 234.123 644.423 331.41 524.601 415.932C443.831 472.912 375.376 523.079 316.91 562.064M64.6577 562.064C47.9905 493.662 30.6478 401.351 0.37518 331.297M1439.86 -115.904C1262.07 -46.8333 1090.9 41.5232 938.385 131.621C762.22 235.699 614.211 337.398 491.169 426.003C419.134 477.663 357.081 524.077 303.319 562.064M34.8653 562.064C32.1187 532.152 30.8805 498.878 30.6328 465.581C30.2726 420.224 20.8096 368.474 0.37518 324.221M1439.86 -128.368C1255.11 -56.7541 1077.32 35.137 919.271 128.912C736.712 237.23 584.013 343.634 457.744 436.284C393.92 483.156 338.012 525.781 288.873 562.064M11.8119 562.064C11.6242 533.09 12.7349 501.774 14.7611 470.744C17.3951 430.415 13.1701 384.398 0.37518 343.042M1439.86 -140.773C1248.17 -66.6374 1063.72 28.5857 900.15 126.195C711.212 238.896 553.763 349.871 424.312 446.805C367.932 488.919 317.825 527.829 273.174 562.064M0.37518 462.999C2.6415 439.323 2.77658 414.063 0.37518 389.171M1439.86 -165.688C1234.24 -86.5465 1036.48 15.5506 861.915 120.709C660.145 242.228 493.195 362.688 357.456 468.59C314.876 501.752 275.928 533.112 240.29 562.064M1439.86 -178.107C1227.28 -96.4598 1022.87 9.05178 842.802 117.955C634.623 244.096 462.907 369.442 324.024 479.891C287.875 508.686 254.368 536.204 223.3 562.064M1439.86 -190.647C1220.3 -106.591 1009.2 2.34285 823.68 115.179C609.04 245.74 432.5 375.948 290.592 491.501C260.507 515.927 232.26 539.529 205.747 562.064" stroke="#067A49" stroke-opacity="0.2"/>
</svg>
