<svg width="1440" height="753" viewBox="0 0 1440 753" fill="none" xmlns="http://www.w3.org/2000/svg">
<path opacity="0.71" d="M0.375211 455.876C225.859 554.784 452.319 649.526 678.538 608.935C918.776 565.08 1165.57 398.34 1439.86 286.495M1439.86 298.967C1194.66 400.884 956.133 551.234 712.195 597.476C474.389 642.112 234.992 554.266 0.375211 454.878M0.375211 456.949C216.689 555.444 430.233 657.316 644.889 620.597C881.637 579.331 1136.71 395.736 1439.86 273.992M0.375211 458.105C207.496 556.285 408.126 665.256 611.232 632.462C730.071 612.913 854.764 554.529 992.611 483.342C1127.34 413.731 1276.4 327.364 1439.85 261.633M0.375211 459.366C198.243 557.358 385.995 673.556 577.582 644.551C693.449 626.548 817.7 566.513 959.195 491.319C1100.61 416.103 1260.92 320.61 1439.86 249.145M0.375211 460.724C188.96 558.588 363.835 682.028 543.925 656.873C656.836 640.664 780.613 578.61 925.755 499.401C1073.88 418.467 1245.45 313.811 1439.86 236.651M0.375211 462.217C179.61 560.127 341.637 690.936 510.268 669.451C620.214 655.042 743.504 590.872 892.323 507.604C1047.16 420.913 1230.01 307.064 1439.85 224.171M0.375211 463.868C170.199 561.973 319.401 699.971 476.618 682.283C583.608 669.706 706.395 603.352 858.899 515.919C1020.43 423.262 1214.57 300.168 1439.86 211.646M0.375211 465.692C160.721 564.149 297.121 709.374 442.961 695.393C546.987 684.79 669.225 615.937 825.466 524.346C993.677 425.641 1199.17 293.459 1439.86 199.189M0.375211 467.763C151.138 566.858 274.773 719.445 409.311 708.804C510.373 700.354 632.071 628.867 792.035 532.916C885.457 476.881 991.013 412.508 1110.44 346.387C1212.92 289.594 1324.59 232.868 1439.85 187.077M1439.86 162.162C1310.71 213.199 1185.87 277.152 1072.21 341.187C940.246 415.577 825.294 487.897 725.178 550.461C557.658 655.327 437.115 732.697 342.004 736.592C229.852 740.547 131.589 574.062 0.375211 472.873M0.375211 470.142C141.435 570.138 252.357 729.681 375.654 722.522C473.751 716.218 594.88 641.97 758.61 541.614C855.409 482.464 965.611 413.934 1091.33 343.791C1199.39 283.35 1317.66 223.105 1439.86 174.672M1439.86 149.735C1303.77 203.376 1172.3 270.766 1053.1 338.568C914.836 417.078 795.164 493.383 691.753 559.451C520.399 668.88 400.479 749.485 308.347 751.016C207.241 751.826 121.578 578.798 0.375211 476.063M1439.86 37.7171C1241.21 114.367 1050.13 213.192 881.036 314.464C685.698 431.629 523.505 547.242 390.888 648.566C341.659 686.178 297.248 721.328 257.137 753.064M189.043 753.064C131.897 696.534 77.993 567.406 0.375211 484.565M1439.86 124.76C1289.86 183.535 1145.19 258.061 1014.86 333.292C864.024 420.193 734.934 504.82 624.897 577.912C528.811 641.789 449.092 696.039 381.95 733.223C368.66 740.57 355.948 747.218 343.776 753.057M233.716 753.064C160.871 710.049 94.1274 568.382 0.375211 479.89M1439.86 137.315C1296.82 193.575 1158.77 264.507 1033.98 335.934C889.441 418.699 765.064 499.094 658.322 568.599C564.629 629.647 486.074 681.683 419.18 717.539C391.113 732.615 365.388 744.735 341.682 753.064M152.354 753.064C107.703 689.105 64.6127 569.357 0.375211 490.336M1439.86 112.371C1282.93 173.794 1131.68 251.915 995.741 330.643C838.607 421.896 704.766 510.56 591.465 587.398C492.97 654.134 412.103 710.777 344.714 749.342C342.507 750.603 340.316 751.841 338.14 753.064M120.205 753.064C86.1803 685.007 52.6057 573.845 0.375211 497.833M1439.86 99.9434C1275.98 163.918 1118.08 245.431 976.627 327.979C813.129 423.39 674.629 516.511 558.033 597.063C467.463 659.762 392.089 713.749 328.692 753.057M91.2232 753.064C66.4588 683.491 41.4091 581.132 0.367706 507.896M1439.86 87.5161C1269.03 154.072 1104.52 239.112 957.499 325.3C787.697 425.123 644.423 522.41 524.601 606.932C443.831 663.912 375.376 714.079 316.91 753.064M64.6577 753.064C47.9905 684.662 30.6479 592.351 0.375211 522.297M1439.86 75.0964C1262.07 144.167 1090.9 232.523 938.385 322.621C762.22 426.699 614.211 528.398 491.169 617.003C419.134 668.663 357.081 715.077 303.319 753.064M34.8653 753.064C32.1187 723.152 30.8805 689.878 30.6329 656.581C30.2726 611.224 20.8096 559.474 0.375211 515.221M1439.86 62.6316C1255.11 134.246 1077.32 226.137 919.271 319.912C736.712 428.23 584.013 534.634 457.744 627.284C393.92 674.156 338.012 716.781 288.874 753.064M11.8119 753.064C11.6243 724.09 12.7349 692.774 14.7611 661.744C17.3951 621.415 13.1702 575.398 0.375211 534.042M1439.86 50.2269C1248.17 124.363 1063.72 219.586 900.15 317.195C711.212 429.896 553.763 540.871 424.312 637.805C367.932 679.919 317.825 718.829 273.174 753.064M0.375211 653.999C2.64153 630.323 2.77661 605.063 0.375211 580.171M1439.86 25.3123C1234.24 104.454 1036.48 206.551 861.915 311.709C660.145 433.228 493.195 553.688 357.456 659.59C314.876 692.752 275.928 724.112 240.29 753.064M1439.86 12.8926C1227.28 94.5402 1022.87 200.052 842.802 308.955C634.623 435.096 462.908 560.442 324.024 670.891C287.875 699.686 254.368 727.204 223.3 753.064M1439.86 0.352783C1220.3 84.4093 1009.2 193.343 823.68 306.179C609.04 436.74 432.5 566.948 290.592 682.501C260.507 706.927 232.26 730.529 205.748 753.064" stroke="#006D66"/>
</svg>
